<?xml version="1.0" encoding="UTF-8" standalone="no"?>
<!DOCTYPE svg PUBLIC "-//W3C//DTD SVG 1.1//EN"
 "http://www.w3.org/Graphics/SVG/1.1/DTD/svg11.dtd">
<!-- Generated by graphviz version 12.2.1 (20241206.2353)
 -->
<!-- Title: MyTcpServer::handleRegister Pages: 1 -->
<svg width="739pt" height="142pt"
 viewBox="0.00 0.00 739.00 142.00" xmlns="http://www.w3.org/2000/svg" xmlns:xlink="http://www.w3.org/1999/xlink">
<g id="graph0" class="graph" transform="scale(1 1) rotate(0) translate(4 138)">
<title>MyTcpServer::handleRegister</title>
<!-- Node1 -->
<g id="Node000001" class="node">
<title>Node1</title>
<g id="a_Node000001"><a xlink:title=" ">
<polygon fill="#999999" stroke="#666666" points="145,-77 0,-77 0,-57 145,-57 145,-77"/>
<text text-anchor="middle" x="72.5" y="-63.5" font-family="Helvetica,sans-Serif" font-size="10.00">MyTcpServer::handleRegister</text>
</a>
</g>
</g>
<!-- Node2 -->
<g id="Node000002" class="node">
<title>Node2</title>
<g id="a_Node000002"><a xlink:href="classUserUtils.html#a441622407870f87544ce258142338486" target="_top" xlink:title="Регистрация нового пользователя.">
<polygon fill="white" stroke="#666666" points="297.5,-77 181,-77 181,-57 297.5,-57 297.5,-77"/>
<text text-anchor="middle" x="239.25" y="-63.5" font-family="Helvetica,sans-Serif" font-size="10.00">UserUtils::registerUser</text>
</a>
</g>
</g>
<!-- Node1&#45;&gt;Node2 -->
<g id="edge1_Node000001_Node000002" class="edge">
<title>Node1&#45;&gt;Node2</title>
<g id="a_edge1_Node000001_Node000002"><a xlink:title=" ">
<path fill="none" stroke="#63b8ff" d="M145.28,-67C153.21,-67 161.26,-67 169.15,-67"/>
<polygon fill="#63b8ff" stroke="#63b8ff" points="169.04,-70.5 179.04,-67 169.04,-63.5 169.04,-70.5"/>
</a>
</g>
</g>
<!-- Node3 -->
<g id="Node000003" class="node">
<title>Node3</title>
<g id="a_Node000003"><a xlink:href="classUserUtils.html#a5ac7983da9338dbbe265d9eac0a2431f" target="_top" xlink:title="Проверка существования email.">
<polygon fill="white" stroke="#666666" points="447.75,-134 333.5,-134 333.5,-114 447.75,-114 447.75,-134"/>
<text text-anchor="middle" x="390.62" y="-120.5" font-family="Helvetica,sans-Serif" font-size="10.00">UserUtils::emailExists</text>
</a>
</g>
</g>
<!-- Node2&#45;&gt;Node3 -->
<g id="edge2_Node000002_Node000003" class="edge">
<title>Node2&#45;&gt;Node3</title>
<g id="a_edge2_Node000002_Node000003"><a xlink:title=" ">
<path fill="none" stroke="#63b8ff" d="M267.65,-77.45C291.16,-86.43 325.29,-99.45 351.47,-109.44"/>
<polygon fill="#63b8ff" stroke="#63b8ff" points="350.14,-112.68 360.73,-112.98 352.64,-106.14 350.14,-112.68"/>
</a>
</g>
</g>
<!-- Node4 -->
<g id="Node000004" class="node">
<title>Node4</title>
<g id="a_Node000004"><a xlink:href="classUserUtils.html#aa3484f9a24739e88972a986b047af496" target="_top" xlink:title="Хеширование пароля (bcrypt/scrypt).">
<polygon fill="white" stroke="#666666" points="731,-68 603.25,-68 603.25,-48 731,-48 731,-68"/>
<text text-anchor="middle" x="667.12" y="-54.5" font-family="Helvetica,sans-Serif" font-size="10.00">UserUtils::hashPassword</text>
</a>
</g>
</g>
<!-- Node2&#45;&gt;Node4 -->
<g id="edge3_Node000002_Node000004" class="edge">
<title>Node2&#45;&gt;Node4</title>
<g id="a_edge3_Node000002_Node000004"><a xlink:title=" ">
<path fill="none" stroke="#63b8ff" d="M297.88,-68.58C363.23,-70 472.97,-71.28 567.25,-67 575.09,-66.64 583.27,-66.13 591.42,-65.52"/>
<polygon fill="#63b8ff" stroke="#63b8ff" points="591.69,-69.01 601.38,-64.74 591.13,-62.04 591.69,-69.01"/>
</a>
</g>
</g>
<!-- Node5 -->
<g id="Node000005" class="node">
<title>Node5</title>
<g id="a_Node000005"><a xlink:href="classUserUtils.html#a2a5b6c392ca7fc14483e2f42e601818c" target="_top" xlink:title="Аутентификация пользователя.">
<polygon fill="white" stroke="#666666" points="567.25,-40 483.75,-40 483.75,-20 567.25,-20 567.25,-40"/>
<text text-anchor="middle" x="525.5" y="-26.5" font-family="Helvetica,sans-Serif" font-size="10.00">UserUtils::login</text>
</a>
</g>
</g>
<!-- Node2&#45;&gt;Node5 -->
<g id="edge4_Node000002_Node000005" class="edge">
<title>Node2&#45;&gt;Node5</title>
<g id="a_edge4_Node000002_Node000005"><a xlink:title=" ">
<path fill="none" stroke="#63b8ff" d="M297.77,-59.51C348.83,-52.87 422.81,-43.24 472.22,-36.81"/>
<polygon fill="#63b8ff" stroke="#63b8ff" points="472.64,-40.28 482.1,-35.52 471.73,-33.34 472.64,-40.28"/>
</a>
</g>
</g>
<!-- Node6 -->
<g id="Node000006" class="node">
<title>Node6</title>
<g id="a_Node000006"><a xlink:href="classUserUtils.html#a8ec89e89bbe36fea1ab679737461c502" target="_top" xlink:title="Проверка существования логина.">
<polygon fill="white" stroke="#666666" points="446.25,-20 335,-20 335,0 446.25,0 446.25,-20"/>
<text text-anchor="middle" x="390.62" y="-6.5" font-family="Helvetica,sans-Serif" font-size="10.00">UserUtils::loginExists</text>
</a>
</g>
</g>
<!-- Node2&#45;&gt;Node6 -->
<g id="edge7_Node000002_Node000006" class="edge">
<title>Node2&#45;&gt;Node6</title>
<g id="a_edge7_Node000002_Node000006"><a xlink:title=" ">
<path fill="none" stroke="#63b8ff" d="M267.65,-56.55C291.16,-47.57 325.29,-34.55 351.47,-24.56"/>
<polygon fill="#63b8ff" stroke="#63b8ff" points="352.64,-27.86 360.73,-21.02 350.14,-21.32 352.64,-27.86"/>
</a>
</g>
</g>
<!-- Node5&#45;&gt;Node4 -->
<g id="edge5_Node000005_Node000004" class="edge">
<title>Node5&#45;&gt;Node4</title>
<g id="a_edge5_Node000005_Node000004"><a xlink:title=" ">
<path fill="none" stroke="#63b8ff" d="M567.64,-38.25C578.61,-40.45 590.73,-42.88 602.6,-45.26"/>
<polygon fill="#63b8ff" stroke="#63b8ff" points="601.88,-48.69 612.38,-47.22 603.26,-41.82 601.88,-48.69"/>
</a>
</g>
</g>
<!-- Node5&#45;&gt;Node5 -->
<g id="edge6_Node000005_Node000005" class="edge">
<title>Node5&#45;&gt;Node5</title>
<g id="a_edge6_Node000005_Node000005"><a xlink:title=" ">
<path fill="none" stroke="#63b8ff" d="M504.07,-40.34C494.91,-48.98 502.05,-58 525.5,-58 538.32,-58 546.27,-55.3 549.34,-51.44"/>
<polygon fill="#63b8ff" stroke="#63b8ff" points="552.79,-50.85 547.25,-41.82 545.95,-52.33 552.79,-50.85"/>
</a>
</g>
</g>
<!-- Node6&#45;&gt;Node5 -->
<g id="edge8_Node000006_Node000005" class="edge">
<title>Node6&#45;&gt;Node5</title>
<g id="a_edge8_Node000006_Node000005"><a xlink:title=" ">
<path fill="none" stroke="#63b8ff" d="M446.44,-18.25C454.99,-19.54 463.81,-20.86 472.3,-22.14"/>
<polygon fill="#63b8ff" stroke="#63b8ff" points="471.71,-25.59 482.12,-23.62 472.76,-18.67 471.71,-25.59"/>
</a>
</g>
</g>
</g>
</svg>
