<?xml version="1.0" encoding="UTF-8" standalone="no"?>
<!DOCTYPE svg PUBLIC "-//W3C//DTD SVG 1.1//EN"
 "http://www.w3.org/Graphics/SVG/1.1/DTD/svg11.dtd">
<!-- Generated by graphviz version 12.2.1 (20241206.2353)
 -->
<!-- Title: MyTcpServer::handleChangePassword Pages: 1 -->
<svg width="538pt" height="40pt"
 viewBox="0.00 0.00 537.50 40.00" xmlns="http://www.w3.org/2000/svg" xmlns:xlink="http://www.w3.org/1999/xlink">
<g id="graph0" class="graph" transform="scale(1 1) rotate(0) translate(4 36)">
<title>MyTcpServer::handleChangePassword</title>
<!-- Node1 -->
<g id="Node000001" class="node">
<title>Node1</title>
<g id="a_Node000001"><a xlink:title=" ">
<polygon fill="#999999" stroke="#666666" points="529.5,-32 387.5,-32 387.5,0 529.5,0 529.5,-32"/>
<text text-anchor="start" x="395.5" y="-18.5" font-family="Helvetica,sans-Serif" font-size="10.00">MyTcpServer::handleChange</text>
<text text-anchor="middle" x="458.5" y="-6.5" font-family="Helvetica,sans-Serif" font-size="10.00">Password</text>
</a>
</g>
</g>
<!-- Node2 -->
<g id="Node000002" class="node">
<title>Node2</title>
<g id="a_Node000002"><a xlink:href="classMyTcpServer.html#ab4a64d2eab985d723090963f5c8a2882" target="_top" xlink:title="Чтение данных от клиента.">
<polygon fill="white" stroke="#666666" points="351.5,-26 204.25,-26 204.25,-6 351.5,-6 351.5,-26"/>
<text text-anchor="middle" x="277.88" y="-12.5" font-family="Helvetica,sans-Serif" font-size="10.00">MyTcpServer::slotServerRead</text>
</a>
</g>
</g>
<!-- Node1&#45;&gt;Node2 -->
<g id="edge1_Node000001_Node000002" class="edge">
<title>Node1&#45;&gt;Node2</title>
<g id="a_edge1_Node000001_Node000002"><a xlink:title=" ">
<path fill="none" stroke="#63b8ff" d="M375.88,-16C367.85,-16 359.73,-16 351.79,-16"/>
<polygon fill="#63b8ff" stroke="#63b8ff" points="375.65,-19.5 385.65,-16 375.65,-12.5 375.65,-19.5"/>
</a>
</g>
</g>
<!-- Node3 -->
<g id="Node000003" class="node">
<title>Node3</title>
<g id="a_Node000003"><a xlink:href="classMyTcpServer.html#ac813395e1854be34f2177262d9a5013a" target="_top" xlink:title="Обработчик новых подключений.">
<polygon fill="white" stroke="#666666" points="168.25,-26 0,-26 0,-6 168.25,-6 168.25,-26"/>
<text text-anchor="middle" x="84.12" y="-12.5" font-family="Helvetica,sans-Serif" font-size="10.00">MyTcpServer::incomingConnection</text>
</a>
</g>
</g>
<!-- Node2&#45;&gt;Node3 -->
<g id="edge2_Node000002_Node000003" class="edge">
<title>Node2&#45;&gt;Node3</title>
<g id="a_edge2_Node000002_Node000003"><a xlink:title=" ">
<path fill="none" stroke="#63b8ff" d="M192.35,-16C184.45,-16 176.44,-16 168.54,-16"/>
<polygon fill="#63b8ff" stroke="#63b8ff" points="192.32,-19.5 202.32,-16 192.32,-12.5 192.32,-19.5"/>
</a>
</g>
</g>
</g>
</svg>
