<?xml version="1.0" encoding="UTF-8" standalone="no"?>
<!DOCTYPE svg PUBLIC "-//W3C//DTD SVG 1.1//EN"
 "http://www.w3.org/Graphics/SVG/1.1/DTD/svg11.dtd">
<!-- Generated by graphviz version 12.2.1 (20241206.2353)
 -->
<!-- Title: UserUtils::login Pages: 1 -->
<svg width="980pt" height="113pt"
 viewBox="0.00 0.00 980.00 113.00" xmlns="http://www.w3.org/2000/svg" xmlns:xlink="http://www.w3.org/1999/xlink">
<g id="graph0" class="graph" transform="scale(1 1) rotate(0) translate(4 109)">
<title>UserUtils::login</title>
<!-- Node1 -->
<g id="Node000001" class="node">
<title>Node1</title>
<g id="a_Node000001"><a xlink:title="Аутентификация пользователя.">
<polygon fill="#999999" stroke="#666666" points="972,-61 888.5,-61 888.5,-41 972,-41 972,-61"/>
<text text-anchor="middle" x="930.25" y="-47.5" font-family="Helvetica,sans-Serif" font-size="10.00">UserUtils::login</text>
</a>
</g>
</g>
<!-- Node1&#45;&gt;Node1 -->
<g id="edge4_Node000001_Node000001" class="edge">
<title>Node1&#45;&gt;Node1</title>
<g id="a_edge4_Node000001_Node000001"><a xlink:title=" ">
<path fill="none" stroke="#63b8ff" d="M953.82,-72.44C950.79,-76.3 942.93,-79 930.25,-79 907.07,-79 900,-69.98 909.06,-61.34"/>
<polygon fill="#63b8ff" stroke="#63b8ff" points="957.28,-71.86 951.76,-62.82 950.43,-73.33 957.28,-71.86"/>
</a>
</g>
</g>
<!-- Node2 -->
<g id="Node000002" class="node">
<title>Node2</title>
<g id="a_Node000002"><a xlink:href="classMyTcpServer.html#aaffd90ba7decc0188acb72fe611e9de1" target="_top" xlink:title=" ">
<polygon fill="white" stroke="#666666" points="525.75,-105 394.25,-105 394.25,-85 525.75,-85 525.75,-105"/>
<text text-anchor="middle" x="460" y="-91.5" font-family="Helvetica,sans-Serif" font-size="10.00">MyTcpServer::handleLogin</text>
</a>
</g>
</g>
<!-- Node1&#45;&gt;Node2 -->
<g id="edge1_Node000001_Node000002" class="edge">
<title>Node1&#45;&gt;Node2</title>
<g id="a_edge1_Node000001_Node000002"><a xlink:title=" ">
<path fill="none" stroke="#63b8ff" d="M881.8,-64.15C872.16,-66.42 862.06,-68.52 852.5,-70 738.58,-87.59 604.17,-92.85 526.16,-94.39"/>
<polygon fill="#63b8ff" stroke="#63b8ff" points="882.48,-67.59 891.35,-61.79 880.81,-60.79 882.48,-67.59"/>
</a>
</g>
</g>
<!-- Node5 -->
<g id="Node000005" class="node">
<title>Node5</title>
<g id="a_Node000005"><a xlink:href="classUserUtils.html#a8ec89e89bbe36fea1ab679737461c502" target="_top" xlink:title="Проверка существования логина.">
<polygon fill="white" stroke="#666666" points="852.5,-61 741.25,-61 741.25,-41 852.5,-41 852.5,-61"/>
<text text-anchor="middle" x="796.88" y="-47.5" font-family="Helvetica,sans-Serif" font-size="10.00">UserUtils::loginExists</text>
</a>
</g>
</g>
<!-- Node1&#45;&gt;Node5 -->
<g id="edge5_Node000001_Node000005" class="edge">
<title>Node1&#45;&gt;Node5</title>
<g id="a_edge5_Node000001_Node000005"><a xlink:title=" ">
<path fill="none" stroke="#63b8ff" d="M876.78,-51C868.93,-51 860.81,-51 852.91,-51"/>
<polygon fill="#63b8ff" stroke="#63b8ff" points="876.53,-54.5 886.53,-51 876.53,-47.5 876.53,-54.5"/>
</a>
</g>
</g>
<!-- Node7 -->
<g id="Node000007" class="node">
<title>Node7</title>
<g id="a_Node000007"><a xlink:href="classUserUtils.html#a441622407870f87544ce258142338486" target="_top" xlink:title="Регистрация нового пользователя.">
<polygon fill="white" stroke="#666666" points="695.12,-20 578.62,-20 578.62,0 695.12,0 695.12,-20"/>
<text text-anchor="middle" x="636.88" y="-6.5" font-family="Helvetica,sans-Serif" font-size="10.00">UserUtils::registerUser</text>
</a>
</g>
</g>
<!-- Node1&#45;&gt;Node7 -->
<g id="edge11_Node000001_Node000007" class="edge">
<title>Node1&#45;&gt;Node7</title>
<g id="a_edge11_Node000001_Node000007"><a xlink:title=" ">
<path fill="none" stroke="#63b8ff" d="M880.56,-37.86C871.29,-35.66 861.63,-33.59 852.5,-32 799.73,-22.81 738.95,-17.02 695.57,-13.7"/>
<polygon fill="#63b8ff" stroke="#63b8ff" points="879.59,-41.22 890.14,-40.2 881.26,-34.42 879.59,-41.22"/>
</a>
</g>
</g>
<!-- Node3 -->
<g id="Node000003" class="node">
<title>Node3</title>
<g id="a_Node000003"><a xlink:href="classMyTcpServer.html#ab4a64d2eab985d723090963f5c8a2882" target="_top" xlink:title="Чтение данных от клиента.">
<polygon fill="white" stroke="#666666" points="351.5,-64 204.25,-64 204.25,-44 351.5,-44 351.5,-64"/>
<text text-anchor="middle" x="277.88" y="-50.5" font-family="Helvetica,sans-Serif" font-size="10.00">MyTcpServer::slotServerRead</text>
</a>
</g>
</g>
<!-- Node2&#45;&gt;Node3 -->
<g id="edge2_Node000002_Node000003" class="edge">
<title>Node2&#45;&gt;Node3</title>
<g id="a_edge2_Node000002_Node000003"><a xlink:title=" ">
<path fill="none" stroke="#63b8ff" d="M401.94,-82.01C377.03,-76.34 348.2,-69.78 324.71,-64.43"/>
<polygon fill="#63b8ff" stroke="#63b8ff" points="401.08,-85.41 411.61,-84.21 402.63,-78.58 401.08,-85.41"/>
</a>
</g>
</g>
<!-- Node4 -->
<g id="Node000004" class="node">
<title>Node4</title>
<g id="a_Node000004"><a xlink:href="classMyTcpServer.html#ac813395e1854be34f2177262d9a5013a" target="_top" xlink:title="Обработчик новых подключений.">
<polygon fill="white" stroke="#666666" points="168.25,-64 0,-64 0,-44 168.25,-44 168.25,-64"/>
<text text-anchor="middle" x="84.12" y="-50.5" font-family="Helvetica,sans-Serif" font-size="10.00">MyTcpServer::incomingConnection</text>
</a>
</g>
</g>
<!-- Node3&#45;&gt;Node4 -->
<g id="edge3_Node000003_Node000004" class="edge">
<title>Node3&#45;&gt;Node4</title>
<g id="a_edge3_Node000003_Node000004"><a xlink:title=" ">
<path fill="none" stroke="#63b8ff" d="M192.35,-54C184.45,-54 176.44,-54 168.54,-54"/>
<polygon fill="#63b8ff" stroke="#63b8ff" points="192.32,-57.5 202.32,-54 192.32,-50.5 192.32,-57.5"/>
</a>
</g>
</g>
<!-- Node6 -->
<g id="Node000006" class="node">
<title>Node6</title>
<g id="a_Node000006"><a xlink:href="classMyTcpServer.html#a84bb0fd1d46d0d4af347bcc913c7a7ce" target="_top" xlink:title=" ">
<polygon fill="white" stroke="#666666" points="705.25,-70 568.5,-70 568.5,-38 705.25,-38 705.25,-70"/>
<text text-anchor="start" x="576.5" y="-56.5" font-family="Helvetica,sans-Serif" font-size="10.00">MyTcpServer::handleCheck</text>
<text text-anchor="middle" x="636.88" y="-44.5" font-family="Helvetica,sans-Serif" font-size="10.00">Login</text>
</a>
</g>
</g>
<!-- Node5&#45;&gt;Node6 -->
<g id="edge6_Node000005_Node000006" class="edge">
<title>Node5&#45;&gt;Node6</title>
<g id="a_edge6_Node000005_Node000006"><a xlink:title=" ">
<path fill="none" stroke="#63b8ff" d="M729.63,-52.26C721.71,-52.41 713.62,-52.56 705.68,-52.71"/>
<polygon fill="#63b8ff" stroke="#63b8ff" points="729.61,-55.76 739.54,-52.07 729.48,-48.76 729.61,-55.76"/>
</a>
</g>
</g>
<!-- Node5&#45;&gt;Node7 -->
<g id="edge8_Node000005_Node000007" class="edge">
<title>Node5&#45;&gt;Node7</title>
<g id="a_edge8_Node000005_Node000007"><a xlink:title=" ">
<path fill="none" stroke="#63b8ff" d="M744.64,-37.7C723.06,-32.1 698.31,-25.68 678.08,-20.43"/>
<polygon fill="#63b8ff" stroke="#63b8ff" points="743.57,-41.04 754.13,-40.17 745.33,-34.27 743.57,-41.04"/>
</a>
</g>
</g>
<!-- Node6&#45;&gt;Node3 -->
<g id="edge7_Node000006_Node000003" class="edge">
<title>Node6&#45;&gt;Node3</title>
<g id="a_edge7_Node000006_Node000003"><a xlink:title=" ">
<path fill="none" stroke="#63b8ff" d="M557.14,-54C495.85,-54 411.43,-54 351.69,-54"/>
<polygon fill="#63b8ff" stroke="#63b8ff" points="556.79,-57.5 566.79,-54 556.79,-50.5 556.79,-57.5"/>
</a>
</g>
</g>
<!-- Node8 -->
<g id="Node000008" class="node">
<title>Node8</title>
<g id="a_Node000008"><a xlink:href="classMyTcpServer.html#ab6098e754ce2b67c8f3d03f6d6b35774" target="_top" xlink:title=" ">
<polygon fill="white" stroke="#666666" points="532.5,-23 387.5,-23 387.5,-3 532.5,-3 532.5,-23"/>
<text text-anchor="middle" x="460" y="-9.5" font-family="Helvetica,sans-Serif" font-size="10.00">MyTcpServer::handleRegister</text>
</a>
</g>
</g>
<!-- Node7&#45;&gt;Node8 -->
<g id="edge9_Node000007_Node000008" class="edge">
<title>Node7&#45;&gt;Node8</title>
<g id="a_edge9_Node000007_Node000008"><a xlink:title=" ">
<path fill="none" stroke="#63b8ff" d="M566.68,-11.19C555.52,-11.38 543.94,-11.58 532.72,-11.77"/>
<polygon fill="#63b8ff" stroke="#63b8ff" points="566.68,-14.69 576.62,-11.02 566.56,-7.69 566.68,-14.69"/>
</a>
</g>
</g>
<!-- Node8&#45;&gt;Node3 -->
<g id="edge10_Node000008_Node000003" class="edge">
<title>Node8&#45;&gt;Node3</title>
<g id="a_edge10_Node000008_Node000003"><a xlink:title=" ">
<path fill="none" stroke="#63b8ff" d="M401.94,-25.99C377.03,-31.66 348.2,-38.22 324.71,-43.57"/>
<polygon fill="#63b8ff" stroke="#63b8ff" points="402.63,-29.42 411.61,-23.79 401.08,-22.59 402.63,-29.42"/>
</a>
</g>
</g>
</g>
</svg>
