<?xml version="1.0" encoding="UTF-8" standalone="no"?>
<!DOCTYPE svg PUBLIC "-//W3C//DTD SVG 1.1//EN"
 "http://www.w3.org/Graphics/SVG/1.1/DTD/svg11.dtd">
<!-- Generated by graphviz version 12.2.1 (20241206.2353)
 -->
<!-- Title: MyTcpServer::handleRecovery Pages: 1 -->
<svg width="326pt" height="66pt"
 viewBox="0.00 0.00 325.75 66.00" xmlns="http://www.w3.org/2000/svg" xmlns:xlink="http://www.w3.org/1999/xlink">
<g id="graph0" class="graph" transform="scale(1 1) rotate(0) translate(4 62)">
<title>MyTcpServer::handleRecovery</title>
<!-- Node1 -->
<g id="Node000001" class="node">
<title>Node1</title>
<g id="a_Node000001"><a xlink:title=" ">
<polygon fill="#999999" stroke="#666666" points="150.25,-39 0,-39 0,-19 150.25,-19 150.25,-39"/>
<text text-anchor="middle" x="75.12" y="-25.5" font-family="Helvetica,sans-Serif" font-size="10.00">MyTcpServer::handleRecovery</text>
</a>
</g>
</g>
<!-- Node2 -->
<g id="Node000002" class="node">
<title>Node2</title>
<g id="a_Node000002"><a xlink:href="classUserUtils.html#a5ac7983da9338dbbe265d9eac0a2431f" target="_top" xlink:title="Проверка существования email.">
<polygon fill="white" stroke="#666666" points="309.12,-58 194.88,-58 194.88,-38 309.12,-38 309.12,-58"/>
<text text-anchor="middle" x="252" y="-44.5" font-family="Helvetica,sans-Serif" font-size="10.00">UserUtils::emailExists</text>
</a>
</g>
</g>
<!-- Node1&#45;&gt;Node2 -->
<g id="edge1_Node000001_Node000002" class="edge">
<title>Node1&#45;&gt;Node2</title>
<g id="a_edge1_Node000001_Node000002"><a xlink:title=" ">
<path fill="none" stroke="#63b8ff" d="M150.54,-37.09C161.33,-38.26 172.38,-39.46 183.04,-40.62"/>
<polygon fill="#63b8ff" stroke="#63b8ff" points="182.58,-44.09 192.9,-41.69 183.33,-37.13 182.58,-44.09"/>
</a>
</g>
</g>
<!-- Node3 -->
<g id="Node000003" class="node">
<title>Node3</title>
<g id="a_Node000003"><a xlink:href="classEmailUtils.html#a5d7329b4dc6831e86cec1b46114ff7c3" target="_top" xlink:title="Отправка письма через SSL.">
<polygon fill="white" stroke="#666666" points="317.75,-20 186.25,-20 186.25,0 317.75,0 317.75,-20"/>
<text text-anchor="middle" x="252" y="-6.5" font-family="Helvetica,sans-Serif" font-size="10.00">EmailUtils::sendEmailSSL</text>
</a>
</g>
</g>
<!-- Node1&#45;&gt;Node3 -->
<g id="edge2_Node000001_Node000003" class="edge">
<title>Node1&#45;&gt;Node3</title>
<g id="a_edge2_Node000001_Node000003"><a xlink:title=" ">
<path fill="none" stroke="#63b8ff" d="M150.54,-20.91C158.5,-20.05 166.61,-19.17 174.6,-18.3"/>
<polygon fill="#63b8ff" stroke="#63b8ff" points="174.7,-21.81 184.27,-17.25 173.95,-14.85 174.7,-21.81"/>
</a>
</g>
</g>
</g>
</svg>
