<?xml version="1.0" encoding="UTF-8" standalone="no"?>
<!DOCTYPE svg PUBLIC "-//W3C//DTD SVG 1.1//EN"
 "http://www.w3.org/Graphics/SVG/1.1/DTD/svg11.dtd">
<!-- Generated by graphviz version 12.2.1 (20241206.2353)
 -->
<!-- Title: MyTcpServer::incomingConnection Pages: 1 -->
<svg width="1281pt" height="351pt"
 viewBox="0.00 0.00 1281.00 350.69" xmlns="http://www.w3.org/2000/svg" xmlns:xlink="http://www.w3.org/1999/xlink">
<g id="graph0" class="graph" transform="scale(1 1) rotate(0) translate(4 346.69)">
<title>MyTcpServer::incomingConnection</title>
<!-- Node1 -->
<g id="Node000001" class="node">
<title>Node1</title>
<g id="a_Node000001"><a xlink:title="Обработчик новых подключений.">
<polygon fill="#999999" stroke="#666666" points="168.25,-191 0,-191 0,-171 168.25,-171 168.25,-191"/>
<text text-anchor="middle" x="84.12" y="-177.5" font-family="Helvetica,sans-Serif" font-size="10.00">MyTcpServer::incomingConnection</text>
</a>
</g>
</g>
<!-- Node2 -->
<g id="Node000002" class="node">
<title>Node2</title>
<g id="a_Node000002"><a xlink:href="classMyTcpServer.html#ab4a64d2eab985d723090963f5c8a2882" target="_top" xlink:title="Чтение данных от клиента.">
<polygon fill="white" stroke="#666666" points="351.5,-191 204.25,-191 204.25,-171 351.5,-171 351.5,-191"/>
<text text-anchor="middle" x="277.88" y="-177.5" font-family="Helvetica,sans-Serif" font-size="10.00">MyTcpServer::slotServerRead</text>
</a>
</g>
</g>
<!-- Node1&#45;&gt;Node2 -->
<g id="edge1_Node000001_Node000002" class="edge">
<title>Node1&#45;&gt;Node2</title>
<g id="a_edge1_Node000001_Node000002"><a xlink:title=" ">
<path fill="none" stroke="#63b8ff" d="M168.67,-181C176.54,-181 184.52,-181 192.39,-181"/>
<polygon fill="#63b8ff" stroke="#63b8ff" points="192.31,-184.5 202.31,-181 192.31,-177.5 192.31,-184.5"/>
</a>
</g>
</g>
<!-- Node3 -->
<g id="Node000003" class="node">
<title>Node3</title>
<g id="a_Node000003"><a xlink:href="classMyTcpServer.html#a1a5029d6c0bac4e718e6f159d24bf8ee" target="_top" xlink:title=" ">
<polygon fill="white" stroke="#666666" points="1109.25,-335 967.25,-335 967.25,-303 1109.25,-303 1109.25,-335"/>
<text text-anchor="start" x="975.25" y="-321.5" font-family="Helvetica,sans-Serif" font-size="10.00">MyTcpServer::handleChange</text>
<text text-anchor="middle" x="1038.25" y="-309.5" font-family="Helvetica,sans-Serif" font-size="10.00">Password</text>
</a>
</g>
</g>
<!-- Node2&#45;&gt;Node3 -->
<g id="edge2_Node000002_Node000003" class="edge">
<title>Node2&#45;&gt;Node3</title>
<g id="a_edge2_Node000002_Node000003"><a xlink:title=" ">
<path fill="none" stroke="#63b8ff" d="M287.15,-191.35C303.78,-211.32 343.45,-254.99 387.5,-275 576.35,-360.8 828.23,-346.22 955.8,-331.07"/>
<polygon fill="#63b8ff" stroke="#63b8ff" points="956,-334.57 965.5,-329.88 955.15,-327.62 956,-334.57"/>
</a>
</g>
</g>
<!-- Node5 -->
<g id="Node000005" class="node">
<title>Node5</title>
<g id="a_Node000005"><a xlink:href="classMyTcpServer.html#a13a74ac5234c966fb8549bf4618f7275" target="_top" xlink:title=" ">
<polygon fill="white" stroke="#666666" points="534,-128 397.25,-128 397.25,-96 534,-96 534,-128"/>
<text text-anchor="start" x="405.25" y="-114.5" font-family="Helvetica,sans-Serif" font-size="10.00">MyTcpServer::handleCheck</text>
<text text-anchor="middle" x="465.62" y="-102.5" font-family="Helvetica,sans-Serif" font-size="10.00">Email</text>
</a>
</g>
</g>
<!-- Node2&#45;&gt;Node5 -->
<g id="edge4_Node000002_Node000005" class="edge">
<title>Node2&#45;&gt;Node5</title>
<g id="a_edge4_Node000002_Node000005"><a xlink:title=" ">
<path fill="none" stroke="#63b8ff" d="M307.09,-170.52C334.19,-160.45 375.89,-144.96 409.58,-132.45"/>
<polygon fill="#63b8ff" stroke="#63b8ff" points="410.63,-135.79 418.79,-129.03 408.2,-129.23 410.63,-135.79"/>
</a>
</g>
</g>
<!-- Node7 -->
<g id="Node000007" class="node">
<title>Node7</title>
<g id="a_Node000007"><a xlink:href="classMyTcpServer.html#a84bb0fd1d46d0d4af347bcc913c7a7ce" target="_top" xlink:title=" ">
<polygon fill="white" stroke="#666666" points="740.12,-260 603.38,-260 603.38,-228 740.12,-228 740.12,-260"/>
<text text-anchor="start" x="611.38" y="-246.5" font-family="Helvetica,sans-Serif" font-size="10.00">MyTcpServer::handleCheck</text>
<text text-anchor="middle" x="671.75" y="-234.5" font-family="Helvetica,sans-Serif" font-size="10.00">Login</text>
</a>
</g>
</g>
<!-- Node2&#45;&gt;Node7 -->
<g id="edge6_Node000002_Node000007" class="edge">
<title>Node2&#45;&gt;Node7</title>
<g id="a_edge6_Node000002_Node000007"><a xlink:title=" ">
<path fill="none" stroke="#63b8ff" d="M302.97,-191.38C324.65,-200.24 357.62,-212.56 387.5,-219 455.59,-233.67 534.67,-239.77 591.93,-242.28"/>
<polygon fill="#63b8ff" stroke="#63b8ff" points="591.44,-245.76 601.58,-242.68 591.73,-238.77 591.44,-245.76"/>
</a>
</g>
</g>
<!-- Node10 -->
<g id="Node000010" class="node">
<title>Node10</title>
<g id="a_Node000010"><a xlink:href="classMyTcpServer.html#aaffd90ba7decc0188acb72fe611e9de1" target="_top" xlink:title=" ">
<polygon fill="white" stroke="#666666" points="931.25,-298 799.75,-298 799.75,-278 931.25,-278 931.25,-298"/>
<text text-anchor="middle" x="865.5" y="-284.5" font-family="Helvetica,sans-Serif" font-size="10.00">MyTcpServer::handleLogin</text>
</a>
</g>
</g>
<!-- Node2&#45;&gt;Node10 -->
<g id="edge11_Node000002_Node000010" class="edge">
<title>Node2&#45;&gt;Node10</title>
<g id="a_edge11_Node000002_Node000010"><a xlink:title=" ">
<path fill="none" stroke="#63b8ff" d="M292.79,-191.31C312.68,-205.47 350.89,-230.6 387.5,-243 523.02,-288.89 691.77,-293.43 787.92,-291.47"/>
<polygon fill="#63b8ff" stroke="#63b8ff" points="787.85,-294.97 797.76,-291.23 787.68,-287.97 787.85,-294.97"/>
</a>
</g>
</g>
<!-- Node11 -->
<g id="Node000011" class="node">
<title>Node11</title>
<g id="a_Node000011"><a xlink:href="classMyTcpServer.html#a539afc3f79de85997f110fd107274e65" target="_top" xlink:title=" ">
<polygon fill="white" stroke="#666666" points="540.75,-172 390.5,-172 390.5,-152 540.75,-152 540.75,-172"/>
<text text-anchor="middle" x="465.62" y="-158.5" font-family="Helvetica,sans-Serif" font-size="10.00">MyTcpServer::handleRecovery</text>
</a>
</g>
</g>
<!-- Node2&#45;&gt;Node11 -->
<g id="edge13_Node000002_Node000011" class="edge">
<title>Node2&#45;&gt;Node11</title>
<g id="a_edge13_Node000002_Node000011"><a xlink:title=" ">
<path fill="none" stroke="#63b8ff" d="M351.76,-173.55C360.62,-172.64 369.73,-171.71 378.76,-170.78"/>
<polygon fill="#63b8ff" stroke="#63b8ff" points="379.03,-174.27 388.62,-169.77 378.31,-167.31 379.03,-174.27"/>
</a>
</g>
</g>
<!-- Node13 -->
<g id="Node000013" class="node">
<title>Node13</title>
<g id="a_Node000013"><a xlink:href="classMyTcpServer.html#ab6098e754ce2b67c8f3d03f6d6b35774" target="_top" xlink:title=" ">
<polygon fill="white" stroke="#666666" points="538.12,-210 393.12,-210 393.12,-190 538.12,-190 538.12,-210"/>
<text text-anchor="middle" x="465.62" y="-196.5" font-family="Helvetica,sans-Serif" font-size="10.00">MyTcpServer::handleRegister</text>
</a>
</g>
</g>
<!-- Node2&#45;&gt;Node13 -->
<g id="edge16_Node000002_Node000013" class="edge">
<title>Node2&#45;&gt;Node13</title>
<g id="a_edge16_Node000002_Node000013"><a xlink:title=" ">
<path fill="none" stroke="#63b8ff" d="M351.76,-188.45C361.58,-189.46 371.71,-190.5 381.69,-191.52"/>
<polygon fill="#63b8ff" stroke="#63b8ff" points="381.06,-194.97 391.36,-192.51 381.77,-188.01 381.06,-194.97"/>
</a>
</g>
</g>
<!-- Node15 -->
<g id="Node000015" class="node">
<title>Node15</title>
<g id="a_Node000015"><a xlink:href="classMyTcpServer.html#ac4b3f4fcae795c87dc4a76faa48bad26" target="_top" xlink:title="Обработчик запроса на решение уравнения.">
<polygon fill="white" stroke="#666666" points="532.12,-65 399.12,-65 399.12,-45 532.12,-45 532.12,-65"/>
<text text-anchor="middle" x="465.62" y="-51.5" font-family="Helvetica,sans-Serif" font-size="10.00">MyTcpServer::handleSolve</text>
</a>
</g>
</g>
<!-- Node2&#45;&gt;Node15 -->
<g id="edge22_Node000002_Node000015" class="edge">
<title>Node2&#45;&gt;Node15</title>
<g id="a_edge22_Node000002_Node000015"><a xlink:title=" ">
<path fill="none" stroke="#63b8ff" d="M288.49,-170.74C306.45,-152.04 346.97,-112.03 387.5,-87 398.36,-80.29 410.87,-74.41 422.62,-69.59"/>
<polygon fill="#63b8ff" stroke="#63b8ff" points="423.68,-72.93 431.71,-66.01 421.12,-66.41 423.68,-72.93"/>
</a>
</g>
</g>
<!-- Node18 -->
<g id="Node000018" class="node">
<title>Node18</title>
<g id="a_Node000018"><a xlink:href="classMyTcpServer.html#aae887a0326ce5da867e104c2dcc496b7" target="_top" xlink:title=" ">
<polygon fill="white" stroke="#666666" points="543.75,-27 387.5,-27 387.5,-7 543.75,-7 543.75,-27"/>
<text text-anchor="middle" x="465.62" y="-13.5" font-family="Helvetica,sans-Serif" font-size="10.00">MyTcpServer::handleVerifyCode</text>
</a>
</g>
</g>
<!-- Node2&#45;&gt;Node18 -->
<g id="edge25_Node000002_Node000018" class="edge">
<title>Node2&#45;&gt;Node18</title>
<g id="a_edge25_Node000002_Node000018"><a xlink:title=" ">
<path fill="none" stroke="#63b8ff" d="M283.5,-170.66C296.06,-143.86 333.47,-71.76 387.5,-36 389.6,-34.61 391.8,-33.32 394.06,-32.12"/>
<polygon fill="#63b8ff" stroke="#63b8ff" points="395.31,-35.4 402.98,-28.09 392.42,-29.02 395.31,-35.4"/>
</a>
</g>
</g>
<!-- Node4 -->
<g id="Node000004" class="node">
<title>Node4</title>
<g id="a_Node000004"><a xlink:href="classUserUtils.html#aa3484f9a24739e88972a986b047af496" target="_top" xlink:title="Хеширование пароля (bcrypt/scrypt).">
<polygon fill="white" stroke="#666666" points="1273,-260 1145.25,-260 1145.25,-240 1273,-240 1273,-260"/>
<text text-anchor="middle" x="1209.12" y="-246.5" font-family="Helvetica,sans-Serif" font-size="10.00">UserUtils::hashPassword</text>
</a>
</g>
</g>
<!-- Node3&#45;&gt;Node4 -->
<g id="edge3_Node000003_Node000004" class="edge">
<title>Node3&#45;&gt;Node4</title>
<g id="a_edge3_Node000003_Node000004"><a xlink:title=" ">
<path fill="none" stroke="#63b8ff" d="M1079.27,-302.65C1107.39,-291.16 1144.69,-275.92 1171.92,-264.79"/>
<polygon fill="#63b8ff" stroke="#63b8ff" points="1173.22,-268.04 1181.16,-261.02 1170.57,-261.56 1173.22,-268.04"/>
</a>
</g>
</g>
<!-- Node6 -->
<g id="Node000006" class="node">
<title>Node6</title>
<g id="a_Node000006"><a xlink:href="classUserUtils.html#a5ac7983da9338dbbe265d9eac0a2431f" target="_top" xlink:title="Проверка существования email.">
<polygon fill="white" stroke="#666666" points="922.62,-146 808.38,-146 808.38,-126 922.62,-126 922.62,-146"/>
<text text-anchor="middle" x="865.5" y="-132.5" font-family="Helvetica,sans-Serif" font-size="10.00">UserUtils::emailExists</text>
</a>
</g>
</g>
<!-- Node5&#45;&gt;Node6 -->
<g id="edge5_Node000005_Node000006" class="edge">
<title>Node5&#45;&gt;Node6</title>
<g id="a_edge5_Node000005_Node000006"><a xlink:title=" ">
<path fill="none" stroke="#63b8ff" d="M534.3,-103.81C594.8,-98.05 685.68,-93.26 763.75,-105 785.43,-108.26 808.89,-115.26 827.71,-121.78"/>
<polygon fill="#63b8ff" stroke="#63b8ff" points="826.47,-125.06 837.06,-125.13 828.82,-118.47 826.47,-125.06"/>
</a>
</g>
</g>
<!-- Node8 -->
<g id="Node000008" class="node">
<title>Node8</title>
<g id="a_Node000008"><a xlink:href="classUserUtils.html#a8ec89e89bbe36fea1ab679737461c502" target="_top" xlink:title="Проверка существования логина.">
<polygon fill="white" stroke="#666666" points="921.12,-260 809.88,-260 809.88,-240 921.12,-240 921.12,-260"/>
<text text-anchor="middle" x="865.5" y="-246.5" font-family="Helvetica,sans-Serif" font-size="10.00">UserUtils::loginExists</text>
</a>
</g>
</g>
<!-- Node7&#45;&gt;Node8 -->
<g id="edge7_Node000007_Node000008" class="edge">
<title>Node7&#45;&gt;Node8</title>
<g id="a_edge7_Node000007_Node000008"><a xlink:title=" ">
<path fill="none" stroke="#63b8ff" d="M740.62,-246.12C759.36,-246.71 779.66,-247.35 798.3,-247.93"/>
<polygon fill="#63b8ff" stroke="#63b8ff" points="798.04,-251.42 808.15,-248.24 798.26,-244.43 798.04,-251.42"/>
</a>
</g>
</g>
<!-- Node9 -->
<g id="Node000009" class="node">
<title>Node9</title>
<g id="a_Node000009"><a xlink:href="classUserUtils.html#a2a5b6c392ca7fc14483e2f42e601818c" target="_top" xlink:title="Аутентификация пользователя.">
<polygon fill="white" stroke="#666666" points="1080,-260 996.5,-260 996.5,-240 1080,-240 1080,-260"/>
<text text-anchor="middle" x="1038.25" y="-246.5" font-family="Helvetica,sans-Serif" font-size="10.00">UserUtils::login</text>
</a>
</g>
</g>
<!-- Node8&#45;&gt;Node9 -->
<g id="edge8_Node000008_Node000009" class="edge">
<title>Node8&#45;&gt;Node9</title>
<g id="a_edge8_Node000008_Node000009"><a xlink:title=" ">
<path fill="none" stroke="#63b8ff" d="M921.47,-250C941.76,-250 964.69,-250 984.76,-250"/>
<polygon fill="#63b8ff" stroke="#63b8ff" points="984.69,-253.5 994.69,-250 984.69,-246.5 984.69,-253.5"/>
</a>
</g>
</g>
<!-- Node9&#45;&gt;Node4 -->
<g id="edge9_Node000009_Node000004" class="edge">
<title>Node9&#45;&gt;Node4</title>
<g id="a_edge9_Node000009_Node000004"><a xlink:title=" ">
<path fill="none" stroke="#63b8ff" d="M1080.13,-250C1096.22,-250 1115.21,-250 1133.57,-250"/>
<polygon fill="#63b8ff" stroke="#63b8ff" points="1133.37,-253.5 1143.37,-250 1133.37,-246.5 1133.37,-253.5"/>
</a>
</g>
</g>
<!-- Node9&#45;&gt;Node9 -->
<g id="edge10_Node000009_Node000009" class="edge">
<title>Node9&#45;&gt;Node9</title>
<g id="a_edge10_Node000009_Node000009"><a xlink:title=" ">
<path fill="none" stroke="#63b8ff" d="M1011.1,-260.34C999.5,-268.98 1008.55,-278 1038.25,-278 1054.96,-278 1065.13,-275.14 1068.77,-271.11"/>
<polygon fill="#63b8ff" stroke="#63b8ff" points="1072.18,-270.28 1065.85,-261.78 1065.5,-272.37 1072.18,-270.28"/>
</a>
</g>
</g>
<!-- Node10&#45;&gt;Node9 -->
<g id="edge12_Node000010_Node000009" class="edge">
<title>Node10&#45;&gt;Node9</title>
<g id="a_edge12_Node000010_Node000009"><a xlink:title=" ">
<path fill="none" stroke="#63b8ff" d="M913.61,-277.52C935.73,-272.59 962.18,-266.71 984.93,-261.64"/>
<polygon fill="#63b8ff" stroke="#63b8ff" points="985.62,-265.08 994.62,-259.49 984.1,-258.24 985.62,-265.08"/>
</a>
</g>
</g>
<!-- Node11&#45;&gt;Node6 -->
<g id="edge14_Node000011_Node000006" class="edge">
<title>Node11&#45;&gt;Node6</title>
<g id="a_edge14_Node000011_Node000006"><a xlink:title=" ">
<path fill="none" stroke="#63b8ff" d="M541.12,-157.35C601.22,-153.57 687.93,-148.06 763.75,-143 774.4,-142.29 785.68,-141.52 796.68,-140.76"/>
<polygon fill="#63b8ff" stroke="#63b8ff" points="796.78,-144.27 806.51,-140.08 796.29,-137.28 796.78,-144.27"/>
</a>
</g>
</g>
<!-- Node12 -->
<g id="Node000012" class="node">
<title>Node12</title>
<g id="a_Node000012"><a xlink:href="classEmailUtils.html#a5d7329b4dc6831e86cec1b46114ff7c3" target="_top" xlink:title="Отправка письма через SSL.">
<polygon fill="white" stroke="#666666" points="737.5,-134 606,-134 606,-114 737.5,-114 737.5,-134"/>
<text text-anchor="middle" x="671.75" y="-120.5" font-family="Helvetica,sans-Serif" font-size="10.00">EmailUtils::sendEmailSSL</text>
</a>
</g>
</g>
<!-- Node11&#45;&gt;Node12 -->
<g id="edge15_Node000011_Node000012" class="edge">
<title>Node11&#45;&gt;Node12</title>
<g id="a_edge15_Node000011_Node000012"><a xlink:title=" ">
<path fill="none" stroke="#63b8ff" d="M522.94,-151.52C547.82,-146.88 577.27,-141.4 603.31,-136.56"/>
<polygon fill="#63b8ff" stroke="#63b8ff" points="603.94,-140 613.13,-134.73 602.66,-133.12 603.94,-140"/>
</a>
</g>
</g>
<!-- Node14 -->
<g id="Node000014" class="node">
<title>Node14</title>
<g id="a_Node000014"><a xlink:href="classUserUtils.html#a441622407870f87544ce258142338486" target="_top" xlink:title="Регистрация нового пользователя.">
<polygon fill="white" stroke="#666666" points="730,-210 613.5,-210 613.5,-190 730,-190 730,-210"/>
<text text-anchor="middle" x="671.75" y="-196.5" font-family="Helvetica,sans-Serif" font-size="10.00">UserUtils::registerUser</text>
</a>
</g>
</g>
<!-- Node13&#45;&gt;Node14 -->
<g id="edge17_Node000013_Node000014" class="edge">
<title>Node13&#45;&gt;Node14</title>
<g id="a_edge17_Node000013_Node000014"><a xlink:title=" ">
<path fill="none" stroke="#63b8ff" d="M538.59,-200C559.12,-200 581.44,-200 601.79,-200"/>
<polygon fill="#63b8ff" stroke="#63b8ff" points="601.68,-203.5 611.68,-200 601.68,-196.5 601.68,-203.5"/>
</a>
</g>
</g>
<!-- Node14&#45;&gt;Node4 -->
<g id="edge19_Node000014_Node000004" class="edge">
<title>Node14&#45;&gt;Node4</title>
<g id="a_edge19_Node000014_Node000004"><a xlink:title=" ">
<path fill="none" stroke="#63b8ff" d="M730.32,-200.93C782.76,-202.08 862.3,-204.61 931.25,-210 1010.67,-216.21 1030.53,-218.81 1109.25,-231 1121.29,-232.86 1134.09,-235.12 1146.36,-237.42"/>
<polygon fill="#63b8ff" stroke="#63b8ff" points="1145.47,-240.81 1155.95,-239.25 1146.78,-233.94 1145.47,-240.81"/>
</a>
</g>
</g>
<!-- Node14&#45;&gt;Node6 -->
<g id="edge18_Node000014_Node000006" class="edge">
<title>Node14&#45;&gt;Node6</title>
<g id="a_edge18_Node000014_Node000006"><a xlink:title=" ">
<path fill="none" stroke="#63b8ff" d="M718.08,-189.57C732.8,-185.78 749.11,-181.15 763.75,-176 780.27,-170.19 783.53,-166.6 799.75,-160 807.7,-156.76 816.27,-153.46 824.49,-150.38"/>
<polygon fill="#63b8ff" stroke="#63b8ff" points="825.43,-153.76 833.6,-147.01 823,-147.2 825.43,-153.76"/>
</a>
</g>
</g>
<!-- Node14&#45;&gt;Node8 -->
<g id="edge21_Node000014_Node000008" class="edge">
<title>Node14&#45;&gt;Node8</title>
<g id="a_edge21_Node000014_Node000008"><a xlink:title=" ">
<path fill="none" stroke="#63b8ff" d="M726.83,-210.43C739.03,-213.02 751.87,-215.94 763.75,-219 783.27,-224.03 804.64,-230.47 822.66,-236.17"/>
<polygon fill="#63b8ff" stroke="#63b8ff" points="821.37,-239.44 831.96,-239.15 823.5,-232.77 821.37,-239.44"/>
</a>
</g>
</g>
<!-- Node14&#45;&gt;Node9 -->
<g id="edge20_Node000014_Node000009" class="edge">
<title>Node14&#45;&gt;Node9</title>
<g id="a_edge20_Node000014_Node000009"><a xlink:title=" ">
<path fill="none" stroke="#63b8ff" d="M730.37,-205.94C782.85,-211.58 862.41,-220.71 931.25,-231 948.85,-233.63 968.01,-236.93 985.14,-240.04"/>
<polygon fill="#63b8ff" stroke="#63b8ff" points="984.11,-243.41 994.57,-241.77 985.37,-236.52 984.11,-243.41"/>
</a>
</g>
</g>
<!-- Node16 -->
<g id="Node000016" class="node">
<title>Node16</title>
<g id="a_Node000016"><a xlink:href="classMyTcpServer.html#a101dda844de7106707219c762a8461bc" target="_top" xlink:title="Поиск корня методом дихотомии.">
<polygon fill="white" stroke="#666666" points="763.75,-20 579.75,-20 579.75,0 763.75,0 763.75,-20"/>
<text text-anchor="middle" x="671.75" y="-6.5" font-family="Helvetica,sans-Serif" font-size="10.00">MyTcpServer::findRootDichotomyExpr</text>
</a>
</g>
</g>
<!-- Node15&#45;&gt;Node16 -->
<g id="edge23_Node000015_Node000016" class="edge">
<title>Node15&#45;&gt;Node16</title>
<g id="a_edge23_Node000015_Node000016"><a xlink:title=" ">
<path fill="none" stroke="#63b8ff" d="M511.17,-44.54C531.99,-39.71 557.11,-33.96 579.75,-29 589.04,-26.96 598.88,-24.86 608.52,-22.82"/>
<polygon fill="#63b8ff" stroke="#63b8ff" points="609.15,-26.26 618.21,-20.78 607.71,-19.41 609.15,-26.26"/>
</a>
</g>
</g>
<!-- Node17 -->
<g id="Node000017" class="node">
<title>Node17</title>
<g id="a_Node000017"><a xlink:href="classMyTcpServer.html#a8fa8d58270cf1477f6c72ed1f1adaf17" target="_top" xlink:title="Аналогично для метода итераций...">
<polygon fill="white" stroke="#666666" points="757.75,-58 585.75,-58 585.75,-38 757.75,-38 757.75,-58"/>
<text text-anchor="middle" x="671.75" y="-44.5" font-family="Helvetica,sans-Serif" font-size="10.00">MyTcpServer::findRootIterationExpr</text>
</a>
</g>
</g>
<!-- Node15&#45;&gt;Node17 -->
<g id="edge24_Node000015_Node000017" class="edge">
<title>Node15&#45;&gt;Node17</title>
<g id="a_edge24_Node000015_Node000017"><a xlink:title=" ">
<path fill="none" stroke="#63b8ff" d="M532.62,-52.74C545.94,-52.28 560.21,-51.79 574.34,-51.31"/>
<polygon fill="#63b8ff" stroke="#63b8ff" points="574.22,-54.81 584.1,-50.97 573.98,-47.82 574.22,-54.81"/>
</a>
</g>
</g>
</g>
</svg>
