<?xml version="1.0" encoding="UTF-8" standalone="no"?>
<!DOCTYPE svg PUBLIC "-//W3C//DTD SVG 1.1//EN"
 "http://www.w3.org/Graphics/SVG/1.1/DTD/svg11.dtd">
<!-- Generated by graphviz version 12.2.1 (20241206.2353)
 -->
<!-- Title: UserUtils::registerUser Pages: 1 -->
<svg width="558pt" height="142pt"
 viewBox="0.00 0.00 558.00 142.00" xmlns="http://www.w3.org/2000/svg" xmlns:xlink="http://www.w3.org/1999/xlink">
<g id="graph0" class="graph" transform="scale(1 1) rotate(0) translate(4 138)">
<title>UserUtils::registerUser</title>
<!-- Node1 -->
<g id="Node000001" class="node">
<title>Node1</title>
<g id="a_Node000001"><a xlink:title="Регистрация нового пользователя.">
<polygon fill="#999999" stroke="#666666" points="116.5,-77 0,-77 0,-57 116.5,-57 116.5,-77"/>
<text text-anchor="middle" x="58.25" y="-63.5" font-family="Helvetica,sans-Serif" font-size="10.00">UserUtils::registerUser</text>
</a>
</g>
</g>
<!-- Node2 -->
<g id="Node000002" class="node">
<title>Node2</title>
<g id="a_Node000002"><a xlink:href="classUserUtils.html#a5ac7983da9338dbbe265d9eac0a2431f" target="_top" xlink:title="Проверка существования email.">
<polygon fill="white" stroke="#666666" points="266.75,-134 152.5,-134 152.5,-114 266.75,-114 266.75,-134"/>
<text text-anchor="middle" x="209.62" y="-120.5" font-family="Helvetica,sans-Serif" font-size="10.00">UserUtils::emailExists</text>
</a>
</g>
</g>
<!-- Node1&#45;&gt;Node2 -->
<g id="edge1_Node000001_Node000002" class="edge">
<title>Node1&#45;&gt;Node2</title>
<g id="a_edge1_Node000001_Node000002"><a xlink:title=" ">
<path fill="none" stroke="#63b8ff" d="M86.65,-77.45C110.16,-86.43 144.29,-99.45 170.47,-109.44"/>
<polygon fill="#63b8ff" stroke="#63b8ff" points="169.14,-112.68 179.73,-112.98 171.64,-106.14 169.14,-112.68"/>
</a>
</g>
</g>
<!-- Node3 -->
<g id="Node000003" class="node">
<title>Node3</title>
<g id="a_Node000003"><a xlink:href="classUserUtils.html#aa3484f9a24739e88972a986b047af496" target="_top" xlink:title="Хеширование пароля (bcrypt/scrypt).">
<polygon fill="white" stroke="#666666" points="550,-68 422.25,-68 422.25,-48 550,-48 550,-68"/>
<text text-anchor="middle" x="486.12" y="-54.5" font-family="Helvetica,sans-Serif" font-size="10.00">UserUtils::hashPassword</text>
</a>
</g>
</g>
<!-- Node1&#45;&gt;Node3 -->
<g id="edge2_Node000001_Node000003" class="edge">
<title>Node1&#45;&gt;Node3</title>
<g id="a_edge2_Node000001_Node000003"><a xlink:title=" ">
<path fill="none" stroke="#63b8ff" d="M116.88,-68.58C182.23,-70 291.97,-71.28 386.25,-67 394.09,-66.64 402.27,-66.13 410.42,-65.52"/>
<polygon fill="#63b8ff" stroke="#63b8ff" points="410.69,-69.01 420.38,-64.74 410.13,-62.04 410.69,-69.01"/>
</a>
</g>
</g>
<!-- Node4 -->
<g id="Node000004" class="node">
<title>Node4</title>
<g id="a_Node000004"><a xlink:href="classUserUtils.html#a2a5b6c392ca7fc14483e2f42e601818c" target="_top" xlink:title="Аутентификация пользователя.">
<polygon fill="white" stroke="#666666" points="386.25,-40 302.75,-40 302.75,-20 386.25,-20 386.25,-40"/>
<text text-anchor="middle" x="344.5" y="-26.5" font-family="Helvetica,sans-Serif" font-size="10.00">UserUtils::login</text>
</a>
</g>
</g>
<!-- Node1&#45;&gt;Node4 -->
<g id="edge3_Node000001_Node000004" class="edge">
<title>Node1&#45;&gt;Node4</title>
<g id="a_edge3_Node000001_Node000004"><a xlink:title=" ">
<path fill="none" stroke="#63b8ff" d="M116.77,-59.51C167.83,-52.87 241.81,-43.24 291.22,-36.81"/>
<polygon fill="#63b8ff" stroke="#63b8ff" points="291.64,-40.28 301.1,-35.52 290.73,-33.34 291.64,-40.28"/>
</a>
</g>
</g>
<!-- Node5 -->
<g id="Node000005" class="node">
<title>Node5</title>
<g id="a_Node000005"><a xlink:href="classUserUtils.html#a8ec89e89bbe36fea1ab679737461c502" target="_top" xlink:title="Проверка существования логина.">
<polygon fill="white" stroke="#666666" points="265.25,-20 154,-20 154,0 265.25,0 265.25,-20"/>
<text text-anchor="middle" x="209.62" y="-6.5" font-family="Helvetica,sans-Serif" font-size="10.00">UserUtils::loginExists</text>
</a>
</g>
</g>
<!-- Node1&#45;&gt;Node5 -->
<g id="edge6_Node000001_Node000005" class="edge">
<title>Node1&#45;&gt;Node5</title>
<g id="a_edge6_Node000001_Node000005"><a xlink:title=" ">
<path fill="none" stroke="#63b8ff" d="M86.65,-56.55C110.16,-47.57 144.29,-34.55 170.47,-24.56"/>
<polygon fill="#63b8ff" stroke="#63b8ff" points="171.64,-27.86 179.73,-21.02 169.14,-21.32 171.64,-27.86"/>
</a>
</g>
</g>
<!-- Node4&#45;&gt;Node3 -->
<g id="edge4_Node000004_Node000003" class="edge">
<title>Node4&#45;&gt;Node3</title>
<g id="a_edge4_Node000004_Node000003"><a xlink:title=" ">
<path fill="none" stroke="#63b8ff" d="M386.64,-38.25C397.61,-40.45 409.73,-42.88 421.6,-45.26"/>
<polygon fill="#63b8ff" stroke="#63b8ff" points="420.88,-48.69 431.38,-47.22 422.26,-41.82 420.88,-48.69"/>
</a>
</g>
</g>
<!-- Node4&#45;&gt;Node4 -->
<g id="edge5_Node000004_Node000004" class="edge">
<title>Node4&#45;&gt;Node4</title>
<g id="a_edge5_Node000004_Node000004"><a xlink:title=" ">
<path fill="none" stroke="#63b8ff" d="M323.07,-40.34C313.91,-48.98 321.05,-58 344.5,-58 357.32,-58 365.27,-55.3 368.34,-51.44"/>
<polygon fill="#63b8ff" stroke="#63b8ff" points="371.79,-50.85 366.25,-41.82 364.95,-52.33 371.79,-50.85"/>
</a>
</g>
</g>
<!-- Node5&#45;&gt;Node4 -->
<g id="edge7_Node000005_Node000004" class="edge">
<title>Node5&#45;&gt;Node4</title>
<g id="a_edge7_Node000005_Node000004"><a xlink:title=" ">
<path fill="none" stroke="#63b8ff" d="M265.44,-18.25C273.99,-19.54 282.81,-20.86 291.3,-22.14"/>
<polygon fill="#63b8ff" stroke="#63b8ff" points="290.71,-25.59 301.12,-23.62 291.76,-18.67 290.71,-25.59"/>
</a>
</g>
</g>
</g>
</svg>
