<?xml version="1.0" encoding="UTF-8" standalone="no"?>
<!DOCTYPE svg PUBLIC "-//W3C//DTD SVG 1.1//EN"
 "http://www.w3.org/Graphics/SVG/1.1/DTD/svg11.dtd">
<!-- Generated by graphviz version 12.2.1 (20241206.2353)
 -->
<!-- Title: MyTcpServer::findRootDichotomyExpr Pages: 1 -->
<svg width="749pt" height="28pt"
 viewBox="0.00 0.00 748.50 28.00" xmlns="http://www.w3.org/2000/svg" xmlns:xlink="http://www.w3.org/1999/xlink">
<g id="graph0" class="graph" transform="scale(1 1) rotate(0) translate(4 24)">
<title>MyTcpServer::findRootDichotomyExpr</title>
<!-- Node1 -->
<g id="Node000001" class="node">
<title>Node1</title>
<g id="a_Node000001"><a xlink:title="Поиск корня методом дихотомии.">
<polygon fill="#999999" stroke="#666666" points="740.5,-20 556.5,-20 556.5,0 740.5,0 740.5,-20"/>
<text text-anchor="middle" x="648.5" y="-6.5" font-family="Helvetica,sans-Serif" font-size="10.00">MyTcpServer::findRootDichotomyExpr</text>
</a>
</g>
</g>
<!-- Node2 -->
<g id="Node000002" class="node">
<title>Node2</title>
<g id="a_Node000002"><a xlink:href="classMyTcpServer.html#ac4b3f4fcae795c87dc4a76faa48bad26" target="_top" xlink:title="Обработчик запроса на решение уравнения.">
<polygon fill="white" stroke="#666666" points="520.5,-20 387.5,-20 387.5,0 520.5,0 520.5,-20"/>
<text text-anchor="middle" x="454" y="-6.5" font-family="Helvetica,sans-Serif" font-size="10.00">MyTcpServer::handleSolve</text>
</a>
</g>
</g>
<!-- Node1&#45;&gt;Node2 -->
<g id="edge1_Node000001_Node000002" class="edge">
<title>Node1&#45;&gt;Node2</title>
<g id="a_edge1_Node000001_Node000002"><a xlink:title=" ">
<path fill="none" stroke="#63b8ff" d="M544.66,-10C536.63,-10 528.65,-10 520.96,-10"/>
<polygon fill="#63b8ff" stroke="#63b8ff" points="544.53,-13.5 554.53,-10 544.53,-6.5 544.53,-13.5"/>
</a>
</g>
</g>
<!-- Node3 -->
<g id="Node000003" class="node">
<title>Node3</title>
<g id="a_Node000003"><a xlink:href="classMyTcpServer.html#ab4a64d2eab985d723090963f5c8a2882" target="_top" xlink:title="Чтение данных от клиента.">
<polygon fill="white" stroke="#666666" points="351.5,-20 204.25,-20 204.25,0 351.5,0 351.5,-20"/>
<text text-anchor="middle" x="277.88" y="-6.5" font-family="Helvetica,sans-Serif" font-size="10.00">MyTcpServer::slotServerRead</text>
</a>
</g>
</g>
<!-- Node2&#45;&gt;Node3 -->
<g id="edge2_Node000002_Node000003" class="edge">
<title>Node2&#45;&gt;Node3</title>
<g id="a_edge2_Node000002_Node000003"><a xlink:title=" ">
<path fill="none" stroke="#63b8ff" d="M375.93,-10C367.91,-10 359.77,-10 351.79,-10"/>
<polygon fill="#63b8ff" stroke="#63b8ff" points="375.66,-13.5 385.66,-10 375.66,-6.5 375.66,-13.5"/>
</a>
</g>
</g>
<!-- Node4 -->
<g id="Node000004" class="node">
<title>Node4</title>
<g id="a_Node000004"><a xlink:href="classMyTcpServer.html#ac813395e1854be34f2177262d9a5013a" target="_top" xlink:title="Обработчик новых подключений.">
<polygon fill="white" stroke="#666666" points="168.25,-20 0,-20 0,0 168.25,0 168.25,-20"/>
<text text-anchor="middle" x="84.12" y="-6.5" font-family="Helvetica,sans-Serif" font-size="10.00">MyTcpServer::incomingConnection</text>
</a>
</g>
</g>
<!-- Node3&#45;&gt;Node4 -->
<g id="edge3_Node000003_Node000004" class="edge">
<title>Node3&#45;&gt;Node4</title>
<g id="a_edge3_Node000003_Node000004"><a xlink:title=" ">
<path fill="none" stroke="#63b8ff" d="M192.35,-10C184.45,-10 176.44,-10 168.54,-10"/>
<polygon fill="#63b8ff" stroke="#63b8ff" points="192.32,-13.5 202.32,-10 192.32,-6.5 192.32,-13.5"/>
</a>
</g>
</g>
</g>
</svg>
