<?xml version="1.0" encoding="UTF-8" standalone="no"?>
<!DOCTYPE svg PUBLIC "-//W3C//DTD SVG 1.1//EN"
 "http://www.w3.org/Graphics/SVG/1.1/DTD/svg11.dtd">
<!-- Generated by graphviz version 12.2.1 (20241206.2353)
 -->
<!-- Title: MyTcpServer::slotServerRead Pages: 1 -->
<svg width="1077pt" height="351pt"
 viewBox="0.00 0.00 1076.75 350.69" xmlns="http://www.w3.org/2000/svg" xmlns:xlink="http://www.w3.org/1999/xlink">
<g id="graph0" class="graph" transform="scale(1 1) rotate(0) translate(4 346.69)">
<title>MyTcpServer::slotServerRead</title>
<!-- Node1 -->
<g id="Node000001" class="node">
<title>Node1</title>
<g id="a_Node000001"><a xlink:title="Чтение данных от клиента.">
<polygon fill="#999999" stroke="#666666" points="147.25,-191 0,-191 0,-171 147.25,-171 147.25,-191"/>
<text text-anchor="middle" x="73.62" y="-177.5" font-family="Helvetica,sans-Serif" font-size="10.00">MyTcpServer::slotServerRead</text>
</a>
</g>
</g>
<!-- Node2 -->
<g id="Node000002" class="node">
<title>Node2</title>
<g id="a_Node000002"><a xlink:href="classMyTcpServer.html#a1a5029d6c0bac4e718e6f159d24bf8ee" target="_top" xlink:title=" ">
<polygon fill="white" stroke="#666666" points="905,-335 763,-335 763,-303 905,-303 905,-335"/>
<text text-anchor="start" x="771" y="-321.5" font-family="Helvetica,sans-Serif" font-size="10.00">MyTcpServer::handleChange</text>
<text text-anchor="middle" x="834" y="-309.5" font-family="Helvetica,sans-Serif" font-size="10.00">Password</text>
</a>
</g>
</g>
<!-- Node1&#45;&gt;Node2 -->
<g id="edge1_Node000001_Node000002" class="edge">
<title>Node1&#45;&gt;Node2</title>
<g id="a_edge1_Node000001_Node000002"><a xlink:title=" ">
<path fill="none" stroke="#63b8ff" d="M82.9,-191.35C99.53,-211.32 139.2,-254.99 183.25,-275 372.1,-360.8 623.98,-346.22 751.55,-331.07"/>
<polygon fill="#63b8ff" stroke="#63b8ff" points="751.75,-334.57 761.25,-329.88 750.9,-327.62 751.75,-334.57"/>
</a>
</g>
</g>
<!-- Node4 -->
<g id="Node000004" class="node">
<title>Node4</title>
<g id="a_Node000004"><a xlink:href="classMyTcpServer.html#a13a74ac5234c966fb8549bf4618f7275" target="_top" xlink:title=" ">
<polygon fill="white" stroke="#666666" points="329.75,-128 193,-128 193,-96 329.75,-96 329.75,-128"/>
<text text-anchor="start" x="201" y="-114.5" font-family="Helvetica,sans-Serif" font-size="10.00">MyTcpServer::handleCheck</text>
<text text-anchor="middle" x="261.38" y="-102.5" font-family="Helvetica,sans-Serif" font-size="10.00">Email</text>
</a>
</g>
</g>
<!-- Node1&#45;&gt;Node4 -->
<g id="edge3_Node000001_Node000004" class="edge">
<title>Node1&#45;&gt;Node4</title>
<g id="a_edge3_Node000001_Node000004"><a xlink:title=" ">
<path fill="none" stroke="#63b8ff" d="M102.84,-170.52C129.94,-160.45 171.64,-144.96 205.33,-132.45"/>
<polygon fill="#63b8ff" stroke="#63b8ff" points="206.38,-135.79 214.54,-129.03 203.95,-129.23 206.38,-135.79"/>
</a>
</g>
</g>
<!-- Node6 -->
<g id="Node000006" class="node">
<title>Node6</title>
<g id="a_Node000006"><a xlink:href="classMyTcpServer.html#a84bb0fd1d46d0d4af347bcc913c7a7ce" target="_top" xlink:title=" ">
<polygon fill="white" stroke="#666666" points="535.88,-260 399.12,-260 399.12,-228 535.88,-228 535.88,-260"/>
<text text-anchor="start" x="407.12" y="-246.5" font-family="Helvetica,sans-Serif" font-size="10.00">MyTcpServer::handleCheck</text>
<text text-anchor="middle" x="467.5" y="-234.5" font-family="Helvetica,sans-Serif" font-size="10.00">Login</text>
</a>
</g>
</g>
<!-- Node1&#45;&gt;Node6 -->
<g id="edge5_Node000001_Node000006" class="edge">
<title>Node1&#45;&gt;Node6</title>
<g id="a_edge5_Node000001_Node000006"><a xlink:title=" ">
<path fill="none" stroke="#63b8ff" d="M98.72,-191.38C120.4,-200.24 153.37,-212.56 183.25,-219 251.34,-233.67 330.42,-239.77 387.68,-242.28"/>
<polygon fill="#63b8ff" stroke="#63b8ff" points="387.19,-245.76 397.33,-242.68 387.48,-238.77 387.19,-245.76"/>
</a>
</g>
</g>
<!-- Node9 -->
<g id="Node000009" class="node">
<title>Node9</title>
<g id="a_Node000009"><a xlink:href="classMyTcpServer.html#aaffd90ba7decc0188acb72fe611e9de1" target="_top" xlink:title=" ">
<polygon fill="white" stroke="#666666" points="727,-298 595.5,-298 595.5,-278 727,-278 727,-298"/>
<text text-anchor="middle" x="661.25" y="-284.5" font-family="Helvetica,sans-Serif" font-size="10.00">MyTcpServer::handleLogin</text>
</a>
</g>
</g>
<!-- Node1&#45;&gt;Node9 -->
<g id="edge10_Node000001_Node000009" class="edge">
<title>Node1&#45;&gt;Node9</title>
<g id="a_edge10_Node000001_Node000009"><a xlink:title=" ">
<path fill="none" stroke="#63b8ff" d="M88.54,-191.31C108.43,-205.47 146.64,-230.6 183.25,-243 318.77,-288.89 487.52,-293.43 583.67,-291.47"/>
<polygon fill="#63b8ff" stroke="#63b8ff" points="583.6,-294.97 593.51,-291.23 583.43,-287.97 583.6,-294.97"/>
</a>
</g>
</g>
<!-- Node10 -->
<g id="Node000010" class="node">
<title>Node10</title>
<g id="a_Node000010"><a xlink:href="classMyTcpServer.html#a539afc3f79de85997f110fd107274e65" target="_top" xlink:title=" ">
<polygon fill="white" stroke="#666666" points="336.5,-172 186.25,-172 186.25,-152 336.5,-152 336.5,-172"/>
<text text-anchor="middle" x="261.38" y="-158.5" font-family="Helvetica,sans-Serif" font-size="10.00">MyTcpServer::handleRecovery</text>
</a>
</g>
</g>
<!-- Node1&#45;&gt;Node10 -->
<g id="edge12_Node000001_Node000010" class="edge">
<title>Node1&#45;&gt;Node10</title>
<g id="a_edge12_Node000001_Node000010"><a xlink:title=" ">
<path fill="none" stroke="#63b8ff" d="M147.51,-173.55C156.37,-172.64 165.48,-171.71 174.51,-170.78"/>
<polygon fill="#63b8ff" stroke="#63b8ff" points="174.78,-174.27 184.37,-169.77 174.06,-167.31 174.78,-174.27"/>
</a>
</g>
</g>
<!-- Node12 -->
<g id="Node000012" class="node">
<title>Node12</title>
<g id="a_Node000012"><a xlink:href="classMyTcpServer.html#ab6098e754ce2b67c8f3d03f6d6b35774" target="_top" xlink:title=" ">
<polygon fill="white" stroke="#666666" points="333.88,-210 188.88,-210 188.88,-190 333.88,-190 333.88,-210"/>
<text text-anchor="middle" x="261.38" y="-196.5" font-family="Helvetica,sans-Serif" font-size="10.00">MyTcpServer::handleRegister</text>
</a>
</g>
</g>
<!-- Node1&#45;&gt;Node12 -->
<g id="edge15_Node000001_Node000012" class="edge">
<title>Node1&#45;&gt;Node12</title>
<g id="a_edge15_Node000001_Node000012"><a xlink:title=" ">
<path fill="none" stroke="#63b8ff" d="M147.51,-188.45C157.33,-189.46 167.46,-190.5 177.44,-191.52"/>
<polygon fill="#63b8ff" stroke="#63b8ff" points="176.81,-194.97 187.11,-192.51 177.52,-188.01 176.81,-194.97"/>
</a>
</g>
</g>
<!-- Node14 -->
<g id="Node000014" class="node">
<title>Node14</title>
<g id="a_Node000014"><a xlink:href="classMyTcpServer.html#ac4b3f4fcae795c87dc4a76faa48bad26" target="_top" xlink:title="Обработчик запроса на решение уравнения.">
<polygon fill="white" stroke="#666666" points="327.88,-65 194.88,-65 194.88,-45 327.88,-45 327.88,-65"/>
<text text-anchor="middle" x="261.38" y="-51.5" font-family="Helvetica,sans-Serif" font-size="10.00">MyTcpServer::handleSolve</text>
</a>
</g>
</g>
<!-- Node1&#45;&gt;Node14 -->
<g id="edge21_Node000001_Node000014" class="edge">
<title>Node1&#45;&gt;Node14</title>
<g id="a_edge21_Node000001_Node000014"><a xlink:title=" ">
<path fill="none" stroke="#63b8ff" d="M84.24,-170.74C102.2,-152.04 142.72,-112.03 183.25,-87 194.11,-80.29 206.62,-74.41 218.37,-69.59"/>
<polygon fill="#63b8ff" stroke="#63b8ff" points="219.43,-72.93 227.46,-66.01 216.87,-66.41 219.43,-72.93"/>
</a>
</g>
</g>
<!-- Node17 -->
<g id="Node000017" class="node">
<title>Node17</title>
<g id="a_Node000017"><a xlink:href="classMyTcpServer.html#aae887a0326ce5da867e104c2dcc496b7" target="_top" xlink:title=" ">
<polygon fill="white" stroke="#666666" points="339.5,-27 183.25,-27 183.25,-7 339.5,-7 339.5,-27"/>
<text text-anchor="middle" x="261.38" y="-13.5" font-family="Helvetica,sans-Serif" font-size="10.00">MyTcpServer::handleVerifyCode</text>
</a>
</g>
</g>
<!-- Node1&#45;&gt;Node17 -->
<g id="edge24_Node000001_Node000017" class="edge">
<title>Node1&#45;&gt;Node17</title>
<g id="a_edge24_Node000001_Node000017"><a xlink:title=" ">
<path fill="none" stroke="#63b8ff" d="M79.25,-170.66C91.81,-143.86 129.22,-71.76 183.25,-36 185.35,-34.61 187.55,-33.32 189.81,-32.12"/>
<polygon fill="#63b8ff" stroke="#63b8ff" points="191.06,-35.4 198.73,-28.09 188.17,-29.02 191.06,-35.4"/>
</a>
</g>
</g>
<!-- Node3 -->
<g id="Node000003" class="node">
<title>Node3</title>
<g id="a_Node000003"><a xlink:href="classUserUtils.html#aa3484f9a24739e88972a986b047af496" target="_top" xlink:title="Хеширование пароля (bcrypt/scrypt).">
<polygon fill="white" stroke="#666666" points="1068.75,-260 941,-260 941,-240 1068.75,-240 1068.75,-260"/>
<text text-anchor="middle" x="1004.88" y="-246.5" font-family="Helvetica,sans-Serif" font-size="10.00">UserUtils::hashPassword</text>
</a>
</g>
</g>
<!-- Node2&#45;&gt;Node3 -->
<g id="edge2_Node000002_Node000003" class="edge">
<title>Node2&#45;&gt;Node3</title>
<g id="a_edge2_Node000002_Node000003"><a xlink:title=" ">
<path fill="none" stroke="#63b8ff" d="M875.02,-302.65C903.14,-291.16 940.44,-275.92 967.67,-264.79"/>
<polygon fill="#63b8ff" stroke="#63b8ff" points="968.97,-268.04 976.91,-261.02 966.32,-261.56 968.97,-268.04"/>
</a>
</g>
</g>
<!-- Node5 -->
<g id="Node000005" class="node">
<title>Node5</title>
<g id="a_Node000005"><a xlink:href="classUserUtils.html#a5ac7983da9338dbbe265d9eac0a2431f" target="_top" xlink:title="Проверка существования email.">
<polygon fill="white" stroke="#666666" points="718.38,-146 604.12,-146 604.12,-126 718.38,-126 718.38,-146"/>
<text text-anchor="middle" x="661.25" y="-132.5" font-family="Helvetica,sans-Serif" font-size="10.00">UserUtils::emailExists</text>
</a>
</g>
</g>
<!-- Node4&#45;&gt;Node5 -->
<g id="edge4_Node000004_Node000005" class="edge">
<title>Node4&#45;&gt;Node5</title>
<g id="a_edge4_Node000004_Node000005"><a xlink:title=" ">
<path fill="none" stroke="#63b8ff" d="M330.05,-103.81C390.55,-98.05 481.43,-93.26 559.5,-105 581.18,-108.26 604.64,-115.26 623.46,-121.78"/>
<polygon fill="#63b8ff" stroke="#63b8ff" points="622.22,-125.06 632.81,-125.13 624.57,-118.47 622.22,-125.06"/>
</a>
</g>
</g>
<!-- Node7 -->
<g id="Node000007" class="node">
<title>Node7</title>
<g id="a_Node000007"><a xlink:href="classUserUtils.html#a8ec89e89bbe36fea1ab679737461c502" target="_top" xlink:title="Проверка существования логина.">
<polygon fill="white" stroke="#666666" points="716.88,-260 605.62,-260 605.62,-240 716.88,-240 716.88,-260"/>
<text text-anchor="middle" x="661.25" y="-246.5" font-family="Helvetica,sans-Serif" font-size="10.00">UserUtils::loginExists</text>
</a>
</g>
</g>
<!-- Node6&#45;&gt;Node7 -->
<g id="edge6_Node000006_Node000007" class="edge">
<title>Node6&#45;&gt;Node7</title>
<g id="a_edge6_Node000006_Node000007"><a xlink:title=" ">
<path fill="none" stroke="#63b8ff" d="M536.37,-246.12C555.11,-246.71 575.41,-247.35 594.05,-247.93"/>
<polygon fill="#63b8ff" stroke="#63b8ff" points="593.79,-251.42 603.9,-248.24 594.01,-244.43 593.79,-251.42"/>
</a>
</g>
</g>
<!-- Node8 -->
<g id="Node000008" class="node">
<title>Node8</title>
<g id="a_Node000008"><a xlink:href="classUserUtils.html#a2a5b6c392ca7fc14483e2f42e601818c" target="_top" xlink:title="Аутентификация пользователя.">
<polygon fill="white" stroke="#666666" points="875.75,-260 792.25,-260 792.25,-240 875.75,-240 875.75,-260"/>
<text text-anchor="middle" x="834" y="-246.5" font-family="Helvetica,sans-Serif" font-size="10.00">UserUtils::login</text>
</a>
</g>
</g>
<!-- Node7&#45;&gt;Node8 -->
<g id="edge7_Node000007_Node000008" class="edge">
<title>Node7&#45;&gt;Node8</title>
<g id="a_edge7_Node000007_Node000008"><a xlink:title=" ">
<path fill="none" stroke="#63b8ff" d="M717.22,-250C737.51,-250 760.44,-250 780.51,-250"/>
<polygon fill="#63b8ff" stroke="#63b8ff" points="780.44,-253.5 790.44,-250 780.44,-246.5 780.44,-253.5"/>
</a>
</g>
</g>
<!-- Node8&#45;&gt;Node3 -->
<g id="edge8_Node000008_Node000003" class="edge">
<title>Node8&#45;&gt;Node3</title>
<g id="a_edge8_Node000008_Node000003"><a xlink:title=" ">
<path fill="none" stroke="#63b8ff" d="M875.88,-250C891.97,-250 910.96,-250 929.32,-250"/>
<polygon fill="#63b8ff" stroke="#63b8ff" points="929.12,-253.5 939.12,-250 929.12,-246.5 929.12,-253.5"/>
</a>
</g>
</g>
<!-- Node8&#45;&gt;Node8 -->
<g id="edge9_Node000008_Node000008" class="edge">
<title>Node8&#45;&gt;Node8</title>
<g id="a_edge9_Node000008_Node000008"><a xlink:title=" ">
<path fill="none" stroke="#63b8ff" d="M806.85,-260.34C795.25,-268.98 804.3,-278 834,-278 850.71,-278 860.88,-275.14 864.52,-271.11"/>
<polygon fill="#63b8ff" stroke="#63b8ff" points="867.93,-270.28 861.6,-261.78 861.25,-272.37 867.93,-270.28"/>
</a>
</g>
</g>
<!-- Node9&#45;&gt;Node8 -->
<g id="edge11_Node000009_Node000008" class="edge">
<title>Node9&#45;&gt;Node8</title>
<g id="a_edge11_Node000009_Node000008"><a xlink:title=" ">
<path fill="none" stroke="#63b8ff" d="M709.36,-277.52C731.48,-272.59 757.93,-266.71 780.68,-261.64"/>
<polygon fill="#63b8ff" stroke="#63b8ff" points="781.37,-265.08 790.37,-259.49 779.85,-258.24 781.37,-265.08"/>
</a>
</g>
</g>
<!-- Node10&#45;&gt;Node5 -->
<g id="edge13_Node000010_Node000005" class="edge">
<title>Node10&#45;&gt;Node5</title>
<g id="a_edge13_Node000010_Node000005"><a xlink:title=" ">
<path fill="none" stroke="#63b8ff" d="M336.87,-157.35C396.97,-153.57 483.68,-148.06 559.5,-143 570.15,-142.29 581.43,-141.52 592.43,-140.76"/>
<polygon fill="#63b8ff" stroke="#63b8ff" points="592.53,-144.27 602.26,-140.08 592.04,-137.28 592.53,-144.27"/>
</a>
</g>
</g>
<!-- Node11 -->
<g id="Node000011" class="node">
<title>Node11</title>
<g id="a_Node000011"><a xlink:href="classEmailUtils.html#a5d7329b4dc6831e86cec1b46114ff7c3" target="_top" xlink:title="Отправка письма через SSL.">
<polygon fill="white" stroke="#666666" points="533.25,-134 401.75,-134 401.75,-114 533.25,-114 533.25,-134"/>
<text text-anchor="middle" x="467.5" y="-120.5" font-family="Helvetica,sans-Serif" font-size="10.00">EmailUtils::sendEmailSSL</text>
</a>
</g>
</g>
<!-- Node10&#45;&gt;Node11 -->
<g id="edge14_Node000010_Node000011" class="edge">
<title>Node10&#45;&gt;Node11</title>
<g id="a_edge14_Node000010_Node000011"><a xlink:title=" ">
<path fill="none" stroke="#63b8ff" d="M318.69,-151.52C343.57,-146.88 373.02,-141.4 399.06,-136.56"/>
<polygon fill="#63b8ff" stroke="#63b8ff" points="399.69,-140 408.88,-134.73 398.41,-133.12 399.69,-140"/>
</a>
</g>
</g>
<!-- Node13 -->
<g id="Node000013" class="node">
<title>Node13</title>
<g id="a_Node000013"><a xlink:href="classUserUtils.html#a441622407870f87544ce258142338486" target="_top" xlink:title="Регистрация нового пользователя.">
<polygon fill="white" stroke="#666666" points="525.75,-210 409.25,-210 409.25,-190 525.75,-190 525.75,-210"/>
<text text-anchor="middle" x="467.5" y="-196.5" font-family="Helvetica,sans-Serif" font-size="10.00">UserUtils::registerUser</text>
</a>
</g>
</g>
<!-- Node12&#45;&gt;Node13 -->
<g id="edge16_Node000012_Node000013" class="edge">
<title>Node12&#45;&gt;Node13</title>
<g id="a_edge16_Node000012_Node000013"><a xlink:title=" ">
<path fill="none" stroke="#63b8ff" d="M334.34,-200C354.87,-200 377.19,-200 397.54,-200"/>
<polygon fill="#63b8ff" stroke="#63b8ff" points="397.43,-203.5 407.43,-200 397.43,-196.5 397.43,-203.5"/>
</a>
</g>
</g>
<!-- Node13&#45;&gt;Node3 -->
<g id="edge18_Node000013_Node000003" class="edge">
<title>Node13&#45;&gt;Node3</title>
<g id="a_edge18_Node000013_Node000003"><a xlink:title=" ">
<path fill="none" stroke="#63b8ff" d="M526.07,-200.93C578.51,-202.08 658.05,-204.61 727,-210 806.42,-216.21 826.28,-218.81 905,-231 917.04,-232.86 929.84,-235.12 942.11,-237.42"/>
<polygon fill="#63b8ff" stroke="#63b8ff" points="941.22,-240.81 951.7,-239.25 942.53,-233.94 941.22,-240.81"/>
</a>
</g>
</g>
<!-- Node13&#45;&gt;Node5 -->
<g id="edge17_Node000013_Node000005" class="edge">
<title>Node13&#45;&gt;Node5</title>
<g id="a_edge17_Node000013_Node000005"><a xlink:title=" ">
<path fill="none" stroke="#63b8ff" d="M513.83,-189.57C528.55,-185.78 544.86,-181.15 559.5,-176 576.02,-170.19 579.28,-166.6 595.5,-160 603.45,-156.76 612.02,-153.46 620.24,-150.38"/>
<polygon fill="#63b8ff" stroke="#63b8ff" points="621.18,-153.76 629.35,-147.01 618.75,-147.2 621.18,-153.76"/>
</a>
</g>
</g>
<!-- Node13&#45;&gt;Node7 -->
<g id="edge20_Node000013_Node000007" class="edge">
<title>Node13&#45;&gt;Node7</title>
<g id="a_edge20_Node000013_Node000007"><a xlink:title=" ">
<path fill="none" stroke="#63b8ff" d="M522.58,-210.43C534.78,-213.02 547.62,-215.94 559.5,-219 579.02,-224.03 600.39,-230.47 618.41,-236.17"/>
<polygon fill="#63b8ff" stroke="#63b8ff" points="617.12,-239.44 627.71,-239.15 619.25,-232.77 617.12,-239.44"/>
</a>
</g>
</g>
<!-- Node13&#45;&gt;Node8 -->
<g id="edge19_Node000013_Node000008" class="edge">
<title>Node13&#45;&gt;Node8</title>
<g id="a_edge19_Node000013_Node000008"><a xlink:title=" ">
<path fill="none" stroke="#63b8ff" d="M526.12,-205.94C578.6,-211.58 658.16,-220.71 727,-231 744.6,-233.63 763.76,-236.93 780.89,-240.04"/>
<polygon fill="#63b8ff" stroke="#63b8ff" points="779.86,-243.41 790.32,-241.77 781.12,-236.52 779.86,-243.41"/>
</a>
</g>
</g>
<!-- Node15 -->
<g id="Node000015" class="node">
<title>Node15</title>
<g id="a_Node000015"><a xlink:href="classMyTcpServer.html#a101dda844de7106707219c762a8461bc" target="_top" xlink:title="Поиск корня методом дихотомии.">
<polygon fill="white" stroke="#666666" points="559.5,-20 375.5,-20 375.5,0 559.5,0 559.5,-20"/>
<text text-anchor="middle" x="467.5" y="-6.5" font-family="Helvetica,sans-Serif" font-size="10.00">MyTcpServer::findRootDichotomyExpr</text>
</a>
</g>
</g>
<!-- Node14&#45;&gt;Node15 -->
<g id="edge22_Node000014_Node000015" class="edge">
<title>Node14&#45;&gt;Node15</title>
<g id="a_edge22_Node000014_Node000015"><a xlink:title=" ">
<path fill="none" stroke="#63b8ff" d="M306.92,-44.54C327.74,-39.71 352.86,-33.96 375.5,-29 384.79,-26.96 394.63,-24.86 404.27,-22.82"/>
<polygon fill="#63b8ff" stroke="#63b8ff" points="404.9,-26.26 413.96,-20.78 403.46,-19.41 404.9,-26.26"/>
</a>
</g>
</g>
<!-- Node16 -->
<g id="Node000016" class="node">
<title>Node16</title>
<g id="a_Node000016"><a xlink:href="classMyTcpServer.html#a8fa8d58270cf1477f6c72ed1f1adaf17" target="_top" xlink:title="Аналогично для метода итераций...">
<polygon fill="white" stroke="#666666" points="553.5,-58 381.5,-58 381.5,-38 553.5,-38 553.5,-58"/>
<text text-anchor="middle" x="467.5" y="-44.5" font-family="Helvetica,sans-Serif" font-size="10.00">MyTcpServer::findRootIterationExpr</text>
</a>
</g>
</g>
<!-- Node14&#45;&gt;Node16 -->
<g id="edge23_Node000014_Node000016" class="edge">
<title>Node14&#45;&gt;Node16</title>
<g id="a_edge23_Node000014_Node000016"><a xlink:title=" ">
<path fill="none" stroke="#63b8ff" d="M328.37,-52.74C341.69,-52.28 355.96,-51.79 370.09,-51.31"/>
<polygon fill="#63b8ff" stroke="#63b8ff" points="369.97,-54.81 379.85,-50.97 369.73,-47.82 369.97,-54.81"/>
</a>
</g>
</g>
</g>
</svg>
