<?xml version="1.0" encoding="UTF-8" standalone="no"?>
<!DOCTYPE svg PUBLIC "-//W3C//DTD SVG 1.1//EN"
 "http://www.w3.org/Graphics/SVG/1.1/DTD/svg11.dtd">
<!-- Generated by graphviz version 12.2.1 (20241206.2353)
 -->
<!-- Title: MyTcpServer::handleCheckLogin Pages: 1 -->
<svg width="575pt" height="52pt"
 viewBox="0.00 0.00 575.25 52.00" xmlns="http://www.w3.org/2000/svg" xmlns:xlink="http://www.w3.org/1999/xlink">
<g id="graph0" class="graph" transform="scale(1 1) rotate(0) translate(4 48)">
<title>MyTcpServer::handleCheckLogin</title>
<!-- Node1 -->
<g id="Node000001" class="node">
<title>Node1</title>
<g id="a_Node000001"><a xlink:title=" ">
<polygon fill="#999999" stroke="#666666" points="136.75,-32 0,-32 0,0 136.75,0 136.75,-32"/>
<text text-anchor="start" x="8" y="-18.5" font-family="Helvetica,sans-Serif" font-size="10.00">MyTcpServer::handleCheck</text>
<text text-anchor="middle" x="68.38" y="-6.5" font-family="Helvetica,sans-Serif" font-size="10.00">Login</text>
</a>
</g>
</g>
<!-- Node2 -->
<g id="Node000002" class="node">
<title>Node2</title>
<g id="a_Node000002"><a xlink:href="classUserUtils.html#a8ec89e89bbe36fea1ab679737461c502" target="_top" xlink:title="Проверка существования логина.">
<polygon fill="white" stroke="#666666" points="284,-26 172.75,-26 172.75,-6 284,-6 284,-26"/>
<text text-anchor="middle" x="228.38" y="-12.5" font-family="Helvetica,sans-Serif" font-size="10.00">UserUtils::loginExists</text>
</a>
</g>
</g>
<!-- Node1&#45;&gt;Node2 -->
<g id="edge1_Node000001_Node000002" class="edge">
<title>Node1&#45;&gt;Node2</title>
<g id="a_edge1_Node000001_Node000002"><a xlink:title=" ">
<path fill="none" stroke="#63b8ff" d="M136.84,-16C144.93,-16 153.2,-16 161.27,-16"/>
<polygon fill="#63b8ff" stroke="#63b8ff" points="161.01,-19.5 171.01,-16 161.01,-12.5 161.01,-19.5"/>
</a>
</g>
</g>
<!-- Node3 -->
<g id="Node000003" class="node">
<title>Node3</title>
<g id="a_Node000003"><a xlink:href="classUserUtils.html#a2a5b6c392ca7fc14483e2f42e601818c" target="_top" xlink:title="Аутентификация пользователя.">
<polygon fill="white" stroke="#666666" points="403.5,-26 320,-26 320,-6 403.5,-6 403.5,-26"/>
<text text-anchor="middle" x="361.75" y="-12.5" font-family="Helvetica,sans-Serif" font-size="10.00">UserUtils::login</text>
</a>
</g>
</g>
<!-- Node2&#45;&gt;Node3 -->
<g id="edge2_Node000002_Node000003" class="edge">
<title>Node2&#45;&gt;Node3</title>
<g id="a_edge2_Node000002_Node000003"><a xlink:title=" ">
<path fill="none" stroke="#63b8ff" d="M284.33,-16C292.27,-16 300.42,-16 308.3,-16"/>
<polygon fill="#63b8ff" stroke="#63b8ff" points="308.1,-19.5 318.1,-16 308.1,-12.5 308.1,-19.5"/>
</a>
</g>
</g>
<!-- Node3&#45;&gt;Node3 -->
<g id="edge4_Node000003_Node000003" class="edge">
<title>Node3&#45;&gt;Node3</title>
<g id="a_edge4_Node000003_Node000003"><a xlink:title=" ">
<path fill="none" stroke="#63b8ff" d="M340.56,-26.34C331.5,-34.98 338.57,-44 361.75,-44 374.43,-44 382.29,-41.3 385.32,-37.44"/>
<polygon fill="#63b8ff" stroke="#63b8ff" points="388.78,-36.86 383.26,-27.82 381.93,-38.33 388.78,-36.86"/>
</a>
</g>
</g>
<!-- Node4 -->
<g id="Node000004" class="node">
<title>Node4</title>
<g id="a_Node000004"><a xlink:href="classUserUtils.html#aa3484f9a24739e88972a986b047af496" target="_top" xlink:title="Хеширование пароля (bcrypt/scrypt).">
<polygon fill="white" stroke="#666666" points="567.25,-26 439.5,-26 439.5,-6 567.25,-6 567.25,-26"/>
<text text-anchor="middle" x="503.38" y="-12.5" font-family="Helvetica,sans-Serif" font-size="10.00">UserUtils::hashPassword</text>
</a>
</g>
</g>
<!-- Node3&#45;&gt;Node4 -->
<g id="edge3_Node000003_Node000004" class="edge">
<title>Node3&#45;&gt;Node4</title>
<g id="a_edge3_Node000003_Node000004"><a xlink:title=" ">
<path fill="none" stroke="#63b8ff" d="M403.89,-16C411.38,-16 419.4,-16 427.52,-16"/>
<polygon fill="#63b8ff" stroke="#63b8ff" points="427.49,-19.5 437.49,-16 427.49,-12.5 427.49,-19.5"/>
</a>
</g>
</g>
</g>
</svg>
