<?xml version="1.0" encoding="UTF-8" standalone="no"?>
<!DOCTYPE svg PUBLIC "-//W3C//DTD SVG 1.1//EN"
 "http://www.w3.org/Graphics/SVG/1.1/DTD/svg11.dtd">
<!-- Generated by graphviz version 12.2.1 (20241206.2353)
 -->
<!-- Title: UserUtils::loginExists Pages: 1 -->
<svg width="840pt" height="78pt"
 viewBox="0.00 0.00 840.25 78.00" xmlns="http://www.w3.org/2000/svg" xmlns:xlink="http://www.w3.org/1999/xlink">
<g id="graph0" class="graph" transform="scale(1 1) rotate(0) translate(4 74)">
<title>UserUtils::loginExists</title>
<!-- Node1 -->
<g id="Node000001" class="node">
<title>Node1</title>
<g id="a_Node000001"><a xlink:title="Проверка существования логина.">
<polygon fill="#999999" stroke="#666666" points="832.25,-42 721,-42 721,-22 832.25,-22 832.25,-42"/>
<text text-anchor="middle" x="776.62" y="-28.5" font-family="Helvetica,sans-Serif" font-size="10.00">UserUtils::loginExists</text>
</a>
</g>
</g>
<!-- Node2 -->
<g id="Node000002" class="node">
<title>Node2</title>
<g id="a_Node000002"><a xlink:href="classMyTcpServer.html#a84bb0fd1d46d0d4af347bcc913c7a7ce" target="_top" xlink:title=" ">
<polygon fill="white" stroke="#666666" points="528.38,-70 391.62,-70 391.62,-38 528.38,-38 528.38,-70"/>
<text text-anchor="start" x="399.62" y="-56.5" font-family="Helvetica,sans-Serif" font-size="10.00">MyTcpServer::handleCheck</text>
<text text-anchor="middle" x="460" y="-44.5" font-family="Helvetica,sans-Serif" font-size="10.00">Login</text>
</a>
</g>
</g>
<!-- Node1&#45;&gt;Node2 -->
<g id="edge1_Node000001_Node000002" class="edge">
<title>Node1&#45;&gt;Node2</title>
<g id="a_edge1_Node000001_Node000002"><a xlink:title=" ">
<path fill="none" stroke="#63b8ff" d="M709.51,-36.62C656.49,-40.33 582.35,-45.51 528.87,-49.25"/>
<polygon fill="#63b8ff" stroke="#63b8ff" points="709.58,-40.13 719.31,-35.94 709.09,-33.14 709.58,-40.13"/>
</a>
</g>
</g>
<!-- Node5 -->
<g id="Node000005" class="node">
<title>Node5</title>
<g id="a_Node000005"><a xlink:href="classUserUtils.html#a441622407870f87544ce258142338486" target="_top" xlink:title="Регистрация нового пользователя.">
<polygon fill="white" stroke="#666666" points="685,-23 568.5,-23 568.5,-3 685,-3 685,-23"/>
<text text-anchor="middle" x="626.75" y="-9.5" font-family="Helvetica,sans-Serif" font-size="10.00">UserUtils::registerUser</text>
</a>
</g>
</g>
<!-- Node1&#45;&gt;Node5 -->
<g id="edge4_Node000001_Node000005" class="edge">
<title>Node1&#45;&gt;Node5</title>
<g id="a_edge4_Node000001_Node000005"><a xlink:title=" ">
<path fill="none" stroke="#63b8ff" d="M709.35,-23.49C701.34,-22.46 693.21,-21.41 685.33,-20.4"/>
<polygon fill="#63b8ff" stroke="#63b8ff" points="708.7,-26.93 719.06,-24.73 709.59,-19.99 708.7,-26.93"/>
</a>
</g>
</g>
<!-- Node3 -->
<g id="Node000003" class="node">
<title>Node3</title>
<g id="a_Node000003"><a xlink:href="classMyTcpServer.html#ab4a64d2eab985d723090963f5c8a2882" target="_top" xlink:title="Чтение данных от клиента.">
<polygon fill="white" stroke="#666666" points="351.5,-42 204.25,-42 204.25,-22 351.5,-22 351.5,-42"/>
<text text-anchor="middle" x="277.88" y="-28.5" font-family="Helvetica,sans-Serif" font-size="10.00">MyTcpServer::slotServerRead</text>
</a>
</g>
</g>
<!-- Node2&#45;&gt;Node3 -->
<g id="edge2_Node000002_Node000003" class="edge">
<title>Node2&#45;&gt;Node3</title>
<g id="a_edge2_Node000002_Node000003"><a xlink:title=" ">
<path fill="none" stroke="#63b8ff" d="M379.87,-44.34C370.53,-43.19 361.02,-42.03 351.77,-40.9"/>
<polygon fill="#63b8ff" stroke="#63b8ff" points="379.31,-47.79 389.66,-45.53 380.15,-40.84 379.31,-47.79"/>
</a>
</g>
</g>
<!-- Node4 -->
<g id="Node000004" class="node">
<title>Node4</title>
<g id="a_Node000004"><a xlink:href="classMyTcpServer.html#ac813395e1854be34f2177262d9a5013a" target="_top" xlink:title="Обработчик новых подключений.">
<polygon fill="white" stroke="#666666" points="168.25,-42 0,-42 0,-22 168.25,-22 168.25,-42"/>
<text text-anchor="middle" x="84.12" y="-28.5" font-family="Helvetica,sans-Serif" font-size="10.00">MyTcpServer::incomingConnection</text>
</a>
</g>
</g>
<!-- Node3&#45;&gt;Node4 -->
<g id="edge3_Node000003_Node000004" class="edge">
<title>Node3&#45;&gt;Node4</title>
<g id="a_edge3_Node000003_Node000004"><a xlink:title=" ">
<path fill="none" stroke="#63b8ff" d="M192.35,-32C184.45,-32 176.44,-32 168.54,-32"/>
<polygon fill="#63b8ff" stroke="#63b8ff" points="192.32,-35.5 202.32,-32 192.32,-28.5 192.32,-35.5"/>
</a>
</g>
</g>
<!-- Node6 -->
<g id="Node000006" class="node">
<title>Node6</title>
<g id="a_Node000006"><a xlink:href="classMyTcpServer.html#ab6098e754ce2b67c8f3d03f6d6b35774" target="_top" xlink:title=" ">
<polygon fill="white" stroke="#666666" points="532.5,-20 387.5,-20 387.5,0 532.5,0 532.5,-20"/>
<text text-anchor="middle" x="460" y="-6.5" font-family="Helvetica,sans-Serif" font-size="10.00">MyTcpServer::handleRegister</text>
</a>
</g>
</g>
<!-- Node5&#45;&gt;Node6 -->
<g id="edge5_Node000005_Node000006" class="edge">
<title>Node5&#45;&gt;Node6</title>
<g id="a_edge5_Node000005_Node000006"><a xlink:title=" ">
<path fill="none" stroke="#63b8ff" d="M556.7,-11.74C548.8,-11.6 540.73,-11.45 532.79,-11.31"/>
<polygon fill="#63b8ff" stroke="#63b8ff" points="556.55,-15.24 566.62,-11.92 556.68,-8.24 556.55,-15.24"/>
</a>
</g>
</g>
<!-- Node6&#45;&gt;Node3 -->
<g id="edge6_Node000006_Node000003" class="edge">
<title>Node6&#45;&gt;Node3</title>
<g id="a_edge6_Node000006_Node000003"><a xlink:title=" ">
<path fill="none" stroke="#63b8ff" d="M375.82,-20.16C367.84,-21.13 359.78,-22.12 351.9,-23.08"/>
<polygon fill="#63b8ff" stroke="#63b8ff" points="376.03,-23.66 385.53,-18.97 375.18,-16.71 376.03,-23.66"/>
</a>
</g>
</g>
</g>
</svg>
