<?xml version="1.0" encoding="UTF-8" standalone="no"?>
<!DOCTYPE svg PUBLIC "-//W3C//DTD SVG 1.1//EN"
 "http://www.w3.org/Graphics/SVG/1.1/DTD/svg11.dtd">
<!-- Generated by graphviz version 12.2.1 (20241206.2353)
 -->
<!-- Title: UserUtils::emailExists Pages: 1 -->
<svg width="882pt" height="154pt"
 viewBox="0.00 0.00 881.50 154.00" xmlns="http://www.w3.org/2000/svg" xmlns:xlink="http://www.w3.org/1999/xlink">
<g id="graph0" class="graph" transform="scale(1 1) rotate(0) translate(4 150)">
<title>UserUtils::emailExists</title>
<!-- Node1 -->
<g id="Node000001" class="node">
<title>Node1</title>
<g id="a_Node000001"><a xlink:title="Проверка существования email.">
<polygon fill="#999999" stroke="#666666" points="873.5,-77 759.25,-77 759.25,-57 873.5,-57 873.5,-77"/>
<text text-anchor="middle" x="816.38" y="-63.5" font-family="Helvetica,sans-Serif" font-size="10.00">UserUtils::emailExists</text>
</a>
</g>
</g>
<!-- Node2 -->
<g id="Node000002" class="node">
<title>Node2</title>
<g id="a_Node000002"><a xlink:href="classMyTcpServer.html#a13a74ac5234c966fb8549bf4618f7275" target="_top" xlink:title=" ">
<polygon fill="white" stroke="#666666" points="531,-146 394.25,-146 394.25,-114 531,-114 531,-146"/>
<text text-anchor="start" x="402.25" y="-132.5" font-family="Helvetica,sans-Serif" font-size="10.00">MyTcpServer::handleCheck</text>
<text text-anchor="middle" x="462.62" y="-120.5" font-family="Helvetica,sans-Serif" font-size="10.00">Email</text>
</a>
</g>
</g>
<!-- Node1&#45;&gt;Node2 -->
<g id="edge1_Node000001_Node000002" class="edge">
<title>Node1&#45;&gt;Node2</title>
<g id="a_edge1_Node000001_Node000002"><a xlink:title=" ">
<path fill="none" stroke="#63b8ff" d="M766.22,-80.16C752.38,-83.62 737.28,-87.17 723.25,-90 658.54,-103.03 584,-114.12 531.44,-121.29"/>
<polygon fill="#63b8ff" stroke="#63b8ff" points="766.71,-83.65 775.54,-77.79 764.98,-76.86 766.71,-83.65"/>
</a>
</g>
</g>
<!-- Node5 -->
<g id="Node000005" class="node">
<title>Node5</title>
<g id="a_Node000005"><a xlink:href="classMyTcpServer.html#a539afc3f79de85997f110fd107274e65" target="_top" xlink:title=" ">
<polygon fill="white" stroke="#666666" points="537.75,-96 387.5,-96 387.5,-76 537.75,-76 537.75,-96"/>
<text text-anchor="middle" x="462.62" y="-82.5" font-family="Helvetica,sans-Serif" font-size="10.00">MyTcpServer::handleRecovery</text>
</a>
</g>
</g>
<!-- Node1&#45;&gt;Node5 -->
<g id="edge4_Node000001_Node000005" class="edge">
<title>Node1&#45;&gt;Node5</title>
<g id="a_edge4_Node000001_Node000005"><a xlink:title=" ">
<path fill="none" stroke="#63b8ff" d="M747.61,-70.66C687.56,-73.9 600.05,-78.63 538.08,-81.98"/>
<polygon fill="#63b8ff" stroke="#63b8ff" points="747.55,-74.17 757.35,-70.13 747.17,-67.18 747.55,-74.17"/>
</a>
</g>
</g>
<!-- Node6 -->
<g id="Node000006" class="node">
<title>Node6</title>
<g id="a_Node000006"><a xlink:href="classUserUtils.html#a441622407870f87544ce258142338486" target="_top" xlink:title="Регистрация нового пользователя.">
<polygon fill="white" stroke="#666666" points="706.75,-58 590.25,-58 590.25,-38 706.75,-38 706.75,-58"/>
<text text-anchor="middle" x="648.5" y="-44.5" font-family="Helvetica,sans-Serif" font-size="10.00">UserUtils::registerUser</text>
</a>
</g>
</g>
<!-- Node1&#45;&gt;Node6 -->
<g id="edge6_Node000001_Node000006" class="edge">
<title>Node1&#45;&gt;Node6</title>
<g id="a_edge6_Node000001_Node000006"><a xlink:title=" ">
<path fill="none" stroke="#63b8ff" d="M747.6,-59.24C734.12,-57.69 720.09,-56.09 706.99,-54.59"/>
<polygon fill="#63b8ff" stroke="#63b8ff" points="746.92,-62.68 757.25,-60.34 747.71,-55.73 746.92,-62.68"/>
</a>
</g>
</g>
<!-- Node8 -->
<g id="Node000008" class="node">
<title>Node8</title>
<g id="a_Node000008"><a xlink:href="classUserUtils.html#ad60e8af89296605c0ca21515a10cd48b" target="_top" xlink:title="Отправка кода восстановления.">
<polygon fill="white" stroke="#666666" points="723.25,-20 573.75,-20 573.75,0 723.25,0 723.25,-20"/>
<text text-anchor="middle" x="648.5" y="-6.5" font-family="Helvetica,sans-Serif" font-size="10.00">UserUtils::sendRecoveryCode</text>
</a>
</g>
</g>
<!-- Node1&#45;&gt;Node8 -->
<g id="edge9_Node000001_Node000008" class="edge">
<title>Node1&#45;&gt;Node8</title>
<g id="a_edge9_Node000001_Node000008"><a xlink:title=" ">
<path fill="none" stroke="#63b8ff" d="M782.42,-52.1C765.04,-44.58 743.23,-35.66 723.25,-29 713.97,-25.91 703.89,-23.01 694.25,-20.46"/>
<polygon fill="#63b8ff" stroke="#63b8ff" points="780.67,-55.15 791.23,-55.96 783.48,-48.74 780.67,-55.15"/>
</a>
</g>
</g>
<!-- Node3 -->
<g id="Node000003" class="node">
<title>Node3</title>
<g id="a_Node000003"><a xlink:href="classMyTcpServer.html#ab4a64d2eab985d723090963f5c8a2882" target="_top" xlink:title="Чтение данных от клиента.">
<polygon fill="white" stroke="#666666" points="351.5,-96 204.25,-96 204.25,-76 351.5,-76 351.5,-96"/>
<text text-anchor="middle" x="277.88" y="-82.5" font-family="Helvetica,sans-Serif" font-size="10.00">MyTcpServer::slotServerRead</text>
</a>
</g>
</g>
<!-- Node2&#45;&gt;Node3 -->
<g id="edge2_Node000002_Node000003" class="edge">
<title>Node2&#45;&gt;Node3</title>
<g id="a_edge2_Node000002_Node000003"><a xlink:title=" ">
<path fill="none" stroke="#63b8ff" d="M382.79,-111.02C362.1,-106.04 340.54,-100.85 322.45,-96.49"/>
<polygon fill="#63b8ff" stroke="#63b8ff" points="381.82,-114.39 392.36,-113.32 383.46,-107.58 381.82,-114.39"/>
</a>
</g>
</g>
<!-- Node4 -->
<g id="Node000004" class="node">
<title>Node4</title>
<g id="a_Node000004"><a xlink:href="classMyTcpServer.html#ac813395e1854be34f2177262d9a5013a" target="_top" xlink:title="Обработчик новых подключений.">
<polygon fill="white" stroke="#666666" points="168.25,-96 0,-96 0,-76 168.25,-76 168.25,-96"/>
<text text-anchor="middle" x="84.12" y="-82.5" font-family="Helvetica,sans-Serif" font-size="10.00">MyTcpServer::incomingConnection</text>
</a>
</g>
</g>
<!-- Node3&#45;&gt;Node4 -->
<g id="edge3_Node000003_Node000004" class="edge">
<title>Node3&#45;&gt;Node4</title>
<g id="a_edge3_Node000003_Node000004"><a xlink:title=" ">
<path fill="none" stroke="#63b8ff" d="M192.35,-86C184.45,-86 176.44,-86 168.54,-86"/>
<polygon fill="#63b8ff" stroke="#63b8ff" points="192.32,-89.5 202.32,-86 192.32,-82.5 192.32,-89.5"/>
</a>
</g>
</g>
<!-- Node5&#45;&gt;Node3 -->
<g id="edge5_Node000005_Node000003" class="edge">
<title>Node5&#45;&gt;Node3</title>
<g id="a_edge5_Node000005_Node000003"><a xlink:title=" ">
<path fill="none" stroke="#63b8ff" d="M375.75,-86C367.72,-86 359.64,-86 351.75,-86"/>
<polygon fill="#63b8ff" stroke="#63b8ff" points="375.52,-89.5 385.52,-86 375.52,-82.5 375.52,-89.5"/>
</a>
</g>
</g>
<!-- Node7 -->
<g id="Node000007" class="node">
<title>Node7</title>
<g id="a_Node000007"><a xlink:href="classMyTcpServer.html#ab6098e754ce2b67c8f3d03f6d6b35774" target="_top" xlink:title=" ">
<polygon fill="white" stroke="#666666" points="535.12,-58 390.12,-58 390.12,-38 535.12,-38 535.12,-58"/>
<text text-anchor="middle" x="462.62" y="-44.5" font-family="Helvetica,sans-Serif" font-size="10.00">MyTcpServer::handleRegister</text>
</a>
</g>
</g>
<!-- Node6&#45;&gt;Node7 -->
<g id="edge7_Node000006_Node000007" class="edge">
<title>Node6&#45;&gt;Node7</title>
<g id="a_edge7_Node000006_Node000007"><a xlink:title=" ">
<path fill="none" stroke="#63b8ff" d="M578.67,-48C564.52,-48 549.59,-48 535.34,-48"/>
<polygon fill="#63b8ff" stroke="#63b8ff" points="578.31,-51.5 588.31,-48 578.31,-44.5 578.31,-51.5"/>
</a>
</g>
</g>
<!-- Node7&#45;&gt;Node3 -->
<g id="edge8_Node000007_Node000003" class="edge">
<title>Node7&#45;&gt;Node3</title>
<g id="a_edge8_Node000007_Node000003"><a xlink:title=" ">
<path fill="none" stroke="#63b8ff" d="M400.13,-60.79C377.04,-65.59 351.08,-70.99 329.13,-75.55"/>
<polygon fill="#63b8ff" stroke="#63b8ff" points="400.64,-64.25 409.72,-58.79 399.22,-57.4 400.64,-64.25"/>
</a>
</g>
</g>
</g>
</svg>
