<?xml version="1.0" encoding="UTF-8" standalone="no"?>
<!DOCTYPE svg PUBLIC "-//W3C//DTD SVG 1.1//EN"
 "http://www.w3.org/Graphics/SVG/1.1/DTD/svg11.dtd">
<!-- Generated by graphviz version 12.2.1 (20241206.2353)
 -->
<!-- Title: MyTcpServer::handleLogin Pages: 1 -->
<svg width="423pt" height="46pt"
 viewBox="0.00 0.00 422.75 46.00" xmlns="http://www.w3.org/2000/svg" xmlns:xlink="http://www.w3.org/1999/xlink">
<g id="graph0" class="graph" transform="scale(1 1) rotate(0) translate(4 42)">
<title>MyTcpServer::handleLogin</title>
<!-- Node1 -->
<g id="Node000001" class="node">
<title>Node1</title>
<g id="a_Node000001"><a xlink:title=" ">
<polygon fill="#999999" stroke="#666666" points="131.5,-20 0,-20 0,0 131.5,0 131.5,-20"/>
<text text-anchor="middle" x="65.75" y="-6.5" font-family="Helvetica,sans-Serif" font-size="10.00">MyTcpServer::handleLogin</text>
</a>
</g>
</g>
<!-- Node2 -->
<g id="Node000002" class="node">
<title>Node2</title>
<g id="a_Node000002"><a xlink:href="classUserUtils.html#a2a5b6c392ca7fc14483e2f42e601818c" target="_top" xlink:title="Аутентификация пользователя.">
<polygon fill="white" stroke="#666666" points="251,-20 167.5,-20 167.5,0 251,0 251,-20"/>
<text text-anchor="middle" x="209.25" y="-6.5" font-family="Helvetica,sans-Serif" font-size="10.00">UserUtils::login</text>
</a>
</g>
</g>
<!-- Node1&#45;&gt;Node2 -->
<g id="edge1_Node000001_Node000002" class="edge">
<title>Node1&#45;&gt;Node2</title>
<g id="a_edge1_Node000001_Node000002"><a xlink:title=" ">
<path fill="none" stroke="#63b8ff" d="M131.7,-10C139.81,-10 148.01,-10 155.89,-10"/>
<polygon fill="#63b8ff" stroke="#63b8ff" points="155.63,-13.5 165.63,-10 155.63,-6.5 155.63,-13.5"/>
</a>
</g>
</g>
<!-- Node2&#45;&gt;Node2 -->
<g id="edge3_Node000002_Node000002" class="edge">
<title>Node2&#45;&gt;Node2</title>
<g id="a_edge3_Node000002_Node000002"><a xlink:title=" ">
<path fill="none" stroke="#63b8ff" d="M186.75,-20.34C177.13,-28.98 184.63,-38 209.25,-38 222.71,-38 231.06,-35.3 234.28,-31.44"/>
<polygon fill="#63b8ff" stroke="#63b8ff" points="237.72,-30.79 232.09,-21.81 230.9,-32.34 237.72,-30.79"/>
</a>
</g>
</g>
<!-- Node3 -->
<g id="Node000003" class="node">
<title>Node3</title>
<g id="a_Node000003"><a xlink:href="classUserUtils.html#aa3484f9a24739e88972a986b047af496" target="_top" xlink:title="Хеширование пароля (bcrypt/scrypt).">
<polygon fill="white" stroke="#666666" points="414.75,-20 287,-20 287,0 414.75,0 414.75,-20"/>
<text text-anchor="middle" x="350.88" y="-6.5" font-family="Helvetica,sans-Serif" font-size="10.00">UserUtils::hashPassword</text>
</a>
</g>
</g>
<!-- Node2&#45;&gt;Node3 -->
<g id="edge2_Node000002_Node000003" class="edge">
<title>Node2&#45;&gt;Node3</title>
<g id="a_edge2_Node000002_Node000003"><a xlink:title=" ">
<path fill="none" stroke="#63b8ff" d="M251.39,-10C258.88,-10 266.9,-10 275.02,-10"/>
<polygon fill="#63b8ff" stroke="#63b8ff" points="274.99,-13.5 284.99,-10 274.99,-6.5 274.99,-13.5"/>
</a>
</g>
</g>
</g>
</svg>
