<?xml version="1.0" encoding="UTF-8" standalone="no"?>
<!DOCTYPE svg PUBLIC "-//W3C//DTD SVG 1.1//EN"
 "http://www.w3.org/Graphics/SVG/1.1/DTD/svg11.dtd">
<!-- Generated by graphviz version 12.2.1 (20241206.2353)
 -->
<!-- Title: UserUtils::hashPassword Pages: 1 -->
<svg width="1219pt" height="192pt"
 viewBox="0.00 0.00 1218.75 192.00" xmlns="http://www.w3.org/2000/svg" xmlns:xlink="http://www.w3.org/1999/xlink">
<g id="graph0" class="graph" transform="scale(1 1) rotate(0) translate(4 188)">
<title>UserUtils::hashPassword</title>
<!-- Node1 -->
<g id="Node000001" class="node">
<title>Node1</title>
<g id="a_Node000001"><a xlink:title="Хеширование пароля (bcrypt/scrypt).">
<polygon fill="#999999" stroke="#666666" points="1210.75,-108 1083,-108 1083,-88 1210.75,-88 1210.75,-108"/>
<text text-anchor="middle" x="1146.88" y="-94.5" font-family="Helvetica,sans-Serif" font-size="10.00">UserUtils::hashPassword</text>
</a>
</g>
</g>
<!-- Node2 -->
<g id="Node000002" class="node">
<title>Node2</title>
<g id="a_Node000002"><a xlink:href="classUserUtils.html#a1dffd82940f068de983435a7c10343d0" target="_top" xlink:title="Смена пароля.">
<polygon fill="white" stroke="#666666" points="1047,-184 908.75,-184 908.75,-164 1047,-164 1047,-184"/>
<text text-anchor="middle" x="977.88" y="-170.5" font-family="Helvetica,sans-Serif" font-size="10.00">UserUtils::changePassword</text>
</a>
</g>
</g>
<!-- Node1&#45;&gt;Node2 -->
<g id="edge1_Node000001_Node000002" class="edge">
<title>Node1&#45;&gt;Node2</title>
<g id="a_edge1_Node000001_Node000002"><a xlink:title=" ">
<path fill="none" stroke="#63b8ff" d="M1118.01,-114.05C1098.49,-124.94 1071.6,-139.27 1047,-150 1035.62,-154.96 1022.86,-159.68 1011.48,-163.59"/>
<polygon fill="#63b8ff" stroke="#63b8ff" points="1119.73,-117.1 1126.72,-109.14 1116.29,-111 1119.73,-117.1"/>
</a>
</g>
</g>
<!-- Node3 -->
<g id="Node000003" class="node">
<title>Node3</title>
<g id="a_Node000003"><a xlink:href="classMyTcpServer.html#a1a5029d6c0bac4e718e6f159d24bf8ee" target="_top" xlink:title=" ">
<polygon fill="white" stroke="#666666" points="531,-158 389,-158 389,-126 531,-126 531,-158"/>
<text text-anchor="start" x="397" y="-144.5" font-family="Helvetica,sans-Serif" font-size="10.00">MyTcpServer::handleChange</text>
<text text-anchor="middle" x="460" y="-132.5" font-family="Helvetica,sans-Serif" font-size="10.00">Password</text>
</a>
</g>
</g>
<!-- Node1&#45;&gt;Node3 -->
<g id="edge2_Node000001_Node000003" class="edge">
<title>Node1&#45;&gt;Node3</title>
<g id="a_edge2_Node000001_Node000003"><a xlink:title=" ">
<path fill="none" stroke="#63b8ff" d="M1071.14,-105.05C1063,-105.75 1054.83,-106.41 1047,-107 861.02,-121.02 641.49,-132.88 531.41,-138.5"/>
<polygon fill="#63b8ff" stroke="#63b8ff" points="1071.44,-108.54 1081.1,-104.19 1070.83,-101.57 1071.44,-108.54"/>
</a>
</g>
</g>
<!-- Node6 -->
<g id="Node000006" class="node">
<title>Node6</title>
<g id="a_Node000006"><a xlink:href="classUserUtils.html#a2a5b6c392ca7fc14483e2f42e601818c" target="_top" xlink:title="Аутентификация пользователя.">
<polygon fill="white" stroke="#666666" points="1019.62,-80 936.12,-80 936.12,-60 1019.62,-60 1019.62,-80"/>
<text text-anchor="middle" x="977.88" y="-66.5" font-family="Helvetica,sans-Serif" font-size="10.00">UserUtils::login</text>
</a>
</g>
</g>
<!-- Node1&#45;&gt;Node6 -->
<g id="edge5_Node000001_Node000006" class="edge">
<title>Node1&#45;&gt;Node6</title>
<g id="a_edge5_Node000001_Node000006"><a xlink:title=" ">
<path fill="none" stroke="#63b8ff" d="M1072.34,-85.67C1054.42,-82.67 1035.88,-79.56 1020.08,-76.91"/>
<polygon fill="#63b8ff" stroke="#63b8ff" points="1071.76,-89.12 1082.2,-87.32 1072.91,-82.22 1071.76,-89.12"/>
</a>
</g>
</g>
<!-- Node10 -->
<g id="Node000010" class="node">
<title>Node10</title>
<g id="a_Node000010"><a xlink:href="classUserUtils.html#a441622407870f87544ce258142338486" target="_top" xlink:title="Регистрация нового пользователя.">
<polygon fill="white" stroke="#666666" points="695.12,-20 578.62,-20 578.62,0 695.12,0 695.12,-20"/>
<text text-anchor="middle" x="636.88" y="-6.5" font-family="Helvetica,sans-Serif" font-size="10.00">UserUtils::registerUser</text>
</a>
</g>
</g>
<!-- Node1&#45;&gt;Node10 -->
<g id="edge16_Node000001_Node000010" class="edge">
<title>Node1&#45;&gt;Node10</title>
<g id="a_edge16_Node000001_Node000010"><a xlink:title=" ">
<path fill="none" stroke="#63b8ff" d="M1117.54,-82.19C1098.19,-71.98 1071.68,-59.13 1047,-51 926.48,-11.3 776.09,-6.96 695.4,-8.02"/>
<polygon fill="#63b8ff" stroke="#63b8ff" points="1115.7,-85.17 1126.17,-86.82 1119.02,-79 1115.7,-85.17"/>
</a>
</g>
</g>
<!-- Node4 -->
<g id="Node000004" class="node">
<title>Node4</title>
<g id="a_Node000004"><a xlink:href="classMyTcpServer.html#ab4a64d2eab985d723090963f5c8a2882" target="_top" xlink:title="Чтение данных от клиента.">
<polygon fill="white" stroke="#666666" points="351.5,-86 204.25,-86 204.25,-66 351.5,-66 351.5,-86"/>
<text text-anchor="middle" x="277.88" y="-72.5" font-family="Helvetica,sans-Serif" font-size="10.00">MyTcpServer::slotServerRead</text>
</a>
</g>
</g>
<!-- Node3&#45;&gt;Node4 -->
<g id="edge3_Node000003_Node000004" class="edge">
<title>Node3&#45;&gt;Node4</title>
<g id="a_edge3_Node000003_Node000004"><a xlink:title=" ">
<path fill="none" stroke="#63b8ff" d="M403.5,-121.67C371.66,-110 333.03,-95.84 307.3,-86.41"/>
<polygon fill="#63b8ff" stroke="#63b8ff" points="402,-124.84 412.59,-124.99 404.4,-118.27 402,-124.84"/>
</a>
</g>
</g>
<!-- Node5 -->
<g id="Node000005" class="node">
<title>Node5</title>
<g id="a_Node000005"><a xlink:href="classMyTcpServer.html#ac813395e1854be34f2177262d9a5013a" target="_top" xlink:title="Обработчик новых подключений.">
<polygon fill="white" stroke="#666666" points="168.25,-86 0,-86 0,-66 168.25,-66 168.25,-86"/>
<text text-anchor="middle" x="84.12" y="-72.5" font-family="Helvetica,sans-Serif" font-size="10.00">MyTcpServer::incomingConnection</text>
</a>
</g>
</g>
<!-- Node4&#45;&gt;Node5 -->
<g id="edge4_Node000004_Node000005" class="edge">
<title>Node4&#45;&gt;Node5</title>
<g id="a_edge4_Node000004_Node000005"><a xlink:title=" ">
<path fill="none" stroke="#63b8ff" d="M192.35,-76C184.45,-76 176.44,-76 168.54,-76"/>
<polygon fill="#63b8ff" stroke="#63b8ff" points="192.32,-79.5 202.32,-76 192.32,-72.5 192.32,-79.5"/>
</a>
</g>
</g>
<!-- Node6&#45;&gt;Node6 -->
<g id="edge8_Node000006_Node000006" class="edge">
<title>Node6&#45;&gt;Node6</title>
<g id="a_edge8_Node000006_Node000006"><a xlink:title=" ">
<path fill="none" stroke="#63b8ff" d="M1007.74,-91.44C1003.9,-95.3 993.94,-98 977.88,-98 948.5,-98 939.55,-88.98 951.02,-80.34"/>
<polygon fill="#63b8ff" stroke="#63b8ff" points="1011.12,-90.53 1005.12,-81.8 1004.37,-92.37 1011.12,-90.53"/>
</a>
</g>
</g>
<!-- Node7 -->
<g id="Node000007" class="node">
<title>Node7</title>
<g id="a_Node000007"><a xlink:href="classMyTcpServer.html#aaffd90ba7decc0188acb72fe611e9de1" target="_top" xlink:title=" ">
<polygon fill="white" stroke="#666666" points="872.75,-108 741.25,-108 741.25,-88 872.75,-88 872.75,-108"/>
<text text-anchor="middle" x="807" y="-94.5" font-family="Helvetica,sans-Serif" font-size="10.00">MyTcpServer::handleLogin</text>
</a>
</g>
</g>
<!-- Node6&#45;&gt;Node7 -->
<g id="edge6_Node000006_Node000007" class="edge">
<title>Node6&#45;&gt;Node7</title>
<g id="a_edge6_Node000006_Node000007"><a xlink:title=" ">
<path fill="none" stroke="#63b8ff" d="M924.66,-78.66C907.77,-81.46 888.85,-84.6 871.24,-87.51"/>
<polygon fill="#63b8ff" stroke="#63b8ff" points="925.21,-82.11 934.5,-77.03 924.06,-75.21 925.21,-82.11"/>
</a>
</g>
</g>
<!-- Node8 -->
<g id="Node000008" class="node">
<title>Node8</title>
<g id="a_Node000008"><a xlink:href="classUserUtils.html#a8ec89e89bbe36fea1ab679737461c502" target="_top" xlink:title="Проверка существования логина.">
<polygon fill="white" stroke="#666666" points="862.62,-70 751.38,-70 751.38,-50 862.62,-50 862.62,-70"/>
<text text-anchor="middle" x="807" y="-56.5" font-family="Helvetica,sans-Serif" font-size="10.00">UserUtils::loginExists</text>
</a>
</g>
</g>
<!-- Node6&#45;&gt;Node8 -->
<g id="edge9_Node000006_Node000008" class="edge">
<title>Node6&#45;&gt;Node8</title>
<g id="a_edge9_Node000006_Node000008"><a xlink:title=" ">
<path fill="none" stroke="#63b8ff" d="M924.51,-66.9C904.94,-65.74 882.66,-64.42 862.86,-63.25"/>
<polygon fill="#63b8ff" stroke="#63b8ff" points="924.29,-70.39 934.48,-67.49 924.71,-63.4 924.29,-70.39"/>
</a>
</g>
</g>
<!-- Node6&#45;&gt;Node10 -->
<g id="edge15_Node000006_Node000010" class="edge">
<title>Node6&#45;&gt;Node10</title>
<g id="a_edge15_Node000006_Node000010"><a xlink:title=" ">
<path fill="none" stroke="#63b8ff" d="M932.87,-56.27C914.44,-50.9 892.7,-45.07 872.75,-41 812.7,-28.74 742.99,-20.25 695.2,-15.29"/>
<polygon fill="#63b8ff" stroke="#63b8ff" points="931.84,-59.61 942.42,-59.1 933.83,-52.9 931.84,-59.61"/>
</a>
</g>
</g>
<!-- Node7&#45;&gt;Node4 -->
<g id="edge7_Node000007_Node000004" class="edge">
<title>Node7&#45;&gt;Node4</title>
<g id="a_edge7_Node000007_Node000004"><a xlink:title=" ">
<path fill="none" stroke="#63b8ff" d="M729.49,-94.81C628.33,-90.58 451.31,-83.2 351.92,-79.05"/>
<polygon fill="#63b8ff" stroke="#63b8ff" points="729.19,-98.3 739.32,-95.22 729.48,-91.3 729.19,-98.3"/>
</a>
</g>
</g>
<!-- Node9 -->
<g id="Node000009" class="node">
<title>Node9</title>
<g id="a_Node000009"><a xlink:href="classMyTcpServer.html#a84bb0fd1d46d0d4af347bcc913c7a7ce" target="_top" xlink:title=" ">
<polygon fill="white" stroke="#666666" points="705.25,-70 568.5,-70 568.5,-38 705.25,-38 705.25,-70"/>
<text text-anchor="start" x="576.5" y="-56.5" font-family="Helvetica,sans-Serif" font-size="10.00">MyTcpServer::handleCheck</text>
<text text-anchor="middle" x="636.88" y="-44.5" font-family="Helvetica,sans-Serif" font-size="10.00">Login</text>
</a>
</g>
</g>
<!-- Node8&#45;&gt;Node9 -->
<g id="edge10_Node000008_Node000009" class="edge">
<title>Node8&#45;&gt;Node9</title>
<g id="a_edge10_Node000008_Node000009"><a xlink:title=" ">
<path fill="none" stroke="#63b8ff" d="M739.54,-57.63C728.41,-57.23 716.84,-56.82 705.68,-56.42"/>
<polygon fill="#63b8ff" stroke="#63b8ff" points="739.32,-61.12 749.44,-57.98 739.57,-54.13 739.32,-61.12"/>
</a>
</g>
</g>
<!-- Node8&#45;&gt;Node10 -->
<g id="edge12_Node000008_Node000010" class="edge">
<title>Node8&#45;&gt;Node10</title>
<g id="a_edge12_Node000008_Node000010"><a xlink:title=" ">
<path fill="none" stroke="#63b8ff" d="M762.09,-46.24C744.45,-40.78 723.91,-34.5 705.25,-29 695.69,-26.18 685.34,-23.22 675.69,-20.5"/>
<polygon fill="#63b8ff" stroke="#63b8ff" points="760.9,-49.54 771.49,-49.16 762.98,-42.85 760.9,-49.54"/>
</a>
</g>
</g>
<!-- Node9&#45;&gt;Node4 -->
<g id="edge11_Node000009_Node000004" class="edge">
<title>Node9&#45;&gt;Node4</title>
<g id="a_edge11_Node000009_Node000004"><a xlink:title=" ">
<path fill="none" stroke="#63b8ff" d="M557.14,-58.85C495.85,-62.63 411.43,-67.83 351.69,-71.51"/>
<polygon fill="#63b8ff" stroke="#63b8ff" points="557.03,-62.37 566.8,-58.26 556.6,-55.38 557.03,-62.37"/>
</a>
</g>
</g>
<!-- Node11 -->
<g id="Node000011" class="node">
<title>Node11</title>
<g id="a_Node000011"><a xlink:href="classMyTcpServer.html#ab6098e754ce2b67c8f3d03f6d6b35774" target="_top" xlink:title=" ">
<polygon fill="white" stroke="#666666" points="532.5,-23 387.5,-23 387.5,-3 532.5,-3 532.5,-23"/>
<text text-anchor="middle" x="460" y="-9.5" font-family="Helvetica,sans-Serif" font-size="10.00">MyTcpServer::handleRegister</text>
</a>
</g>
</g>
<!-- Node10&#45;&gt;Node11 -->
<g id="edge13_Node000010_Node000011" class="edge">
<title>Node10&#45;&gt;Node11</title>
<g id="a_edge13_Node000010_Node000011"><a xlink:title=" ">
<path fill="none" stroke="#63b8ff" d="M566.68,-11.19C555.52,-11.38 543.94,-11.58 532.72,-11.77"/>
<polygon fill="#63b8ff" stroke="#63b8ff" points="566.68,-14.69 576.62,-11.02 566.56,-7.69 566.68,-14.69"/>
</a>
</g>
</g>
<!-- Node11&#45;&gt;Node4 -->
<g id="edge14_Node000011_Node000004" class="edge">
<title>Node11&#45;&gt;Node4</title>
<g id="a_edge14_Node000011_Node000004"><a xlink:title=" ">
<path fill="none" stroke="#63b8ff" d="M418.5,-27.17C385.16,-38.83 338.66,-55.09 308.66,-65.58"/>
<polygon fill="#63b8ff" stroke="#63b8ff" points="419.54,-30.51 427.83,-23.9 417.23,-23.9 419.54,-30.51"/>
</a>
</g>
</g>
</g>
</svg>
