<?xml version="1.0" encoding="UTF-8" standalone="no"?>
<!DOCTYPE svg PUBLIC "-//W3C//DTD SVG 1.1//EN"
 "http://www.w3.org/Graphics/SVG/1.1/DTD/svg11.dtd">
<!-- Generated by graphviz version 12.2.1 (20241206.2353)
 -->
<!-- Title: MyTcpServer::handleSolve Pages: 1 -->
<svg width="361pt" height="66pt"
 viewBox="0.00 0.00 361.00 66.00" xmlns="http://www.w3.org/2000/svg" xmlns:xlink="http://www.w3.org/1999/xlink">
<g id="graph0" class="graph" transform="scale(1 1) rotate(0) translate(4 62)">
<title>MyTcpServer::handleSolve</title>
<!-- Node1 -->
<g id="Node000001" class="node">
<title>Node1</title>
<g id="a_Node000001"><a xlink:title="Обработчик запроса на решение уравнения.">
<polygon fill="#999999" stroke="#666666" points="133,-39 0,-39 0,-19 133,-19 133,-39"/>
<text text-anchor="middle" x="66.5" y="-25.5" font-family="Helvetica,sans-Serif" font-size="10.00">MyTcpServer::handleSolve</text>
</a>
</g>
</g>
<!-- Node2 -->
<g id="Node000002" class="node">
<title>Node2</title>
<g id="a_Node000002"><a xlink:href="classMyTcpServer.html#a101dda844de7106707219c762a8461bc" target="_top" xlink:title="Поиск корня методом дихотомии.">
<polygon fill="white" stroke="#666666" points="353,-58 169,-58 169,-38 353,-38 353,-58"/>
<text text-anchor="middle" x="261" y="-44.5" font-family="Helvetica,sans-Serif" font-size="10.00">MyTcpServer::findRootDichotomyExpr</text>
</a>
</g>
</g>
<!-- Node1&#45;&gt;Node2 -->
<g id="edge1_Node000001_Node000002" class="edge">
<title>Node1&#45;&gt;Node2</title>
<g id="a_edge1_Node000001_Node000002"><a xlink:title=" ">
<path fill="none" stroke="#63b8ff" d="M133.48,-35.51C141.17,-36.27 149.15,-37.06 157.19,-37.85"/>
<polygon fill="#63b8ff" stroke="#63b8ff" points="156.78,-41.33 167.08,-38.83 157.47,-34.36 156.78,-41.33"/>
</a>
</g>
</g>
<!-- Node3 -->
<g id="Node000003" class="node">
<title>Node3</title>
<g id="a_Node000003"><a xlink:href="classMyTcpServer.html#a8fa8d58270cf1477f6c72ed1f1adaf17" target="_top" xlink:title="Аналогично для метода итераций...">
<polygon fill="white" stroke="#666666" points="347,-20 175,-20 175,0 347,0 347,-20"/>
<text text-anchor="middle" x="261" y="-6.5" font-family="Helvetica,sans-Serif" font-size="10.00">MyTcpServer::findRootIterationExpr</text>
</a>
</g>
</g>
<!-- Node1&#45;&gt;Node3 -->
<g id="edge2_Node000001_Node000003" class="edge">
<title>Node1&#45;&gt;Node3</title>
<g id="a_edge2_Node000001_Node000003"><a xlink:title=" ">
<path fill="none" stroke="#63b8ff" d="M133.48,-22.49C143.13,-21.54 153.22,-20.54 163.33,-19.54"/>
<polygon fill="#63b8ff" stroke="#63b8ff" points="163.6,-23.03 173.21,-18.57 162.92,-16.07 163.6,-23.03"/>
</a>
</g>
</g>
</g>
</svg>
