<?xml version="1.0" encoding="UTF-8" standalone="no"?>
<!DOCTYPE svg PUBLIC "-//W3C//DTD SVG 1.1//EN"
 "http://www.w3.org/Graphics/SVG/1.1/DTD/svg11.dtd">
<!-- Generated by graphviz version 12.2.1 (20241206.2353)
 -->
<!-- Title: dbsingleton.cpp Pages: 1 -->
<svg width="92pt" height="140pt"
 viewBox="0.00 0.00 92.25 140.00" xmlns="http://www.w3.org/2000/svg" xmlns:xlink="http://www.w3.org/1999/xlink">
<g id="graph0" class="graph" transform="scale(1 1) rotate(0) translate(4 136)">
<title>dbsingleton.cpp</title>
<!-- Node1 -->
<g id="Node000001" class="node">
<title>Node1</title>
<g id="a_Node000001"><a xlink:title=" ">
<polygon fill="#999999" stroke="#666666" points="84.25,-132 0,-132 0,-112 84.25,-112 84.25,-132"/>
<text text-anchor="middle" x="42.12" y="-118.5" font-family="Helvetica,sans-Serif" font-size="10.00">dbsingleton.cpp</text>
</a>
</g>
</g>
<!-- Node2 -->
<g id="Node000002" class="node">
<title>Node2</title>
<g id="a_Node000002"><a xlink:href="dbsingleton_8h.html" target="_top" xlink:title="Singleton для работы с базой данных (SQLite/MySQL).">
<polygon fill="white" stroke="#666666" points="79,-76 5.25,-76 5.25,-56 79,-56 79,-76"/>
<text text-anchor="middle" x="42.12" y="-62.5" font-family="Helvetica,sans-Serif" font-size="10.00">dbsingleton.h</text>
</a>
</g>
</g>
<!-- Node1&#45;&gt;Node2 -->
<g id="edge1_Node000001_Node000002" class="edge">
<title>Node1&#45;&gt;Node2</title>
<g id="a_edge1_Node000001_Node000002"><a xlink:title=" ">
<path fill="none" stroke="#63b8ff" d="M42.12,-111.59C42.12,-105.01 42.12,-95.96 42.12,-87.73"/>
<polygon fill="#63b8ff" stroke="#63b8ff" points="45.63,-87.81 42.13,-77.81 38.63,-87.81 45.63,-87.81"/>
</a>
</g>
</g>
<!-- Node3 -->
<g id="Node000003" class="node">
<title>Node3</title>
<g id="a_Node000003"><a xlink:title=" ">
<polygon fill="#e0e0e0" stroke="#999999" points="82,-20 2.25,-20 2.25,0 82,0 82,-20"/>
<text text-anchor="middle" x="42.12" y="-6.5" font-family="Helvetica,sans-Serif" font-size="10.00">QSqlDatabase</text>
</a>
</g>
</g>
<!-- Node2&#45;&gt;Node3 -->
<g id="edge2_Node000002_Node000003" class="edge">
<title>Node2&#45;&gt;Node3</title>
<g id="a_edge2_Node000002_Node000003"><a xlink:title=" ">
<path fill="none" stroke="#63b8ff" d="M42.12,-55.59C42.12,-49.01 42.12,-39.96 42.12,-31.73"/>
<polygon fill="#63b8ff" stroke="#63b8ff" points="45.63,-31.81 42.13,-21.81 38.63,-31.81 45.63,-31.81"/>
</a>
</g>
</g>
</g>
</svg>
