<?xml version="1.0" encoding="UTF-8" standalone="no"?>
<!DOCTYPE svg PUBLIC "-//W3C//DTD SVG 1.1//EN"
 "http://www.w3.org/Graphics/SVG/1.1/DTD/svg11.dtd">
<!-- Generated by graphviz version 12.2.1 (20241206.2353)
 -->
<!-- Title: emailutils.cpp Pages: 1 -->
<svg width="322pt" height="140pt"
 viewBox="0.00 0.00 321.75 140.00" xmlns="http://www.w3.org/2000/svg" xmlns:xlink="http://www.w3.org/1999/xlink">
<g id="graph0" class="graph" transform="scale(1 1) rotate(0) translate(4 136)">
<title>emailutils.cpp</title>
<!-- Node1 -->
<g id="Node000001" class="node">
<title>Node1</title>
<g id="a_Node000001"><a xlink:title=" ">
<polygon fill="#999999" stroke="#666666" points="199.75,-132 123.75,-132 123.75,-112 199.75,-112 199.75,-132"/>
<text text-anchor="middle" x="161.75" y="-118.5" font-family="Helvetica,sans-Serif" font-size="10.00">emailutils.cpp</text>
</a>
</g>
</g>
<!-- Node2 -->
<g id="Node000002" class="node">
<title>Node2</title>
<g id="a_Node000002"><a xlink:href="emailutils_8h.html" target="_top" xlink:title="Утилиты для отправки email через SSL.">
<polygon fill="white" stroke="#666666" points="65.5,-76 0,-76 0,-56 65.5,-56 65.5,-76"/>
<text text-anchor="middle" x="32.75" y="-62.5" font-family="Helvetica,sans-Serif" font-size="10.00">emailutils.h</text>
</a>
</g>
</g>
<!-- Node1&#45;&gt;Node2 -->
<g id="edge1_Node000001_Node000002" class="edge">
<title>Node1&#45;&gt;Node2</title>
<g id="a_edge1_Node000001_Node000002"><a xlink:title=" ">
<path fill="none" stroke="#63b8ff" d="M139.28,-111.59C118.96,-103.09 88.8,-90.46 65.74,-80.81"/>
<polygon fill="#63b8ff" stroke="#63b8ff" points="67.37,-77.7 56.79,-77.06 64.66,-84.15 67.37,-77.7"/>
</a>
</g>
</g>
<!-- Node4 -->
<g id="Node000004" class="node">
<title>Node4</title>
<g id="a_Node000004"><a xlink:title=" ">
<polygon fill="#e0e0e0" stroke="#999999" points="152,-76 83.5,-76 83.5,-56 152,-56 152,-76"/>
<text text-anchor="middle" x="117.75" y="-62.5" font-family="Helvetica,sans-Serif" font-size="10.00">QSslSocket</text>
</a>
</g>
</g>
<!-- Node1&#45;&gt;Node4 -->
<g id="edge3_Node000001_Node000004" class="edge">
<title>Node1&#45;&gt;Node4</title>
<g id="a_edge3_Node000001_Node000004"><a xlink:title=" ">
<path fill="none" stroke="#63b8ff" d="M154.09,-111.59C148.16,-104.32 139.76,-94.02 132.54,-85.15"/>
<polygon fill="#63b8ff" stroke="#63b8ff" points="135.31,-83.01 126.28,-77.47 129.89,-87.43 135.31,-83.01"/>
</a>
</g>
</g>
<!-- Node5 -->
<g id="Node000005" class="node">
<title>Node5</title>
<g id="a_Node000005"><a xlink:title=" ">
<polygon fill="#e0e0e0" stroke="#999999" points="243.62,-76 169.88,-76 169.88,-56 243.62,-56 243.62,-76"/>
<text text-anchor="middle" x="206.75" y="-62.5" font-family="Helvetica,sans-Serif" font-size="10.00">QTextStream</text>
</a>
</g>
</g>
<!-- Node1&#45;&gt;Node5 -->
<g id="edge4_Node000001_Node000005" class="edge">
<title>Node1&#45;&gt;Node5</title>
<g id="a_edge4_Node000001_Node000005"><a xlink:title=" ">
<path fill="none" stroke="#63b8ff" d="M169.59,-111.59C175.72,-104.24 184.42,-93.8 191.86,-84.87"/>
<polygon fill="#63b8ff" stroke="#63b8ff" points="194.32,-87.38 198.03,-77.46 188.94,-82.9 194.32,-87.38"/>
</a>
</g>
</g>
<!-- Node6 -->
<g id="Node000006" class="node">
<title>Node6</title>
<g id="a_Node000006"><a xlink:title=" ">
<polygon fill="#e0e0e0" stroke="#999999" points="313.75,-76 261.75,-76 261.75,-56 313.75,-56 313.75,-76"/>
<text text-anchor="middle" x="287.75" y="-62.5" font-family="Helvetica,sans-Serif" font-size="10.00">QDebug</text>
</a>
</g>
</g>
<!-- Node1&#45;&gt;Node6 -->
<g id="edge5_Node000001_Node000006" class="edge">
<title>Node1&#45;&gt;Node6</title>
<g id="a_edge5_Node000001_Node000006"><a xlink:title=" ">
<path fill="none" stroke="#63b8ff" d="M183.7,-111.59C203.45,-103.13 232.74,-90.58 255.22,-80.94"/>
<polygon fill="#63b8ff" stroke="#63b8ff" points="256.43,-84.23 264.24,-77.08 253.67,-77.8 256.43,-84.23"/>
</a>
</g>
</g>
<!-- Node3 -->
<g id="Node000003" class="node">
<title>Node3</title>
<g id="a_Node000003"><a xlink:title=" ">
<polygon fill="#e0e0e0" stroke="#999999" points="57.25,-20 8.25,-20 8.25,0 57.25,0 57.25,-20"/>
<text text-anchor="middle" x="32.75" y="-6.5" font-family="Helvetica,sans-Serif" font-size="10.00">QString</text>
</a>
</g>
</g>
<!-- Node2&#45;&gt;Node3 -->
<g id="edge2_Node000002_Node000003" class="edge">
<title>Node2&#45;&gt;Node3</title>
<g id="a_edge2_Node000002_Node000003"><a xlink:title=" ">
<path fill="none" stroke="#63b8ff" d="M32.75,-55.59C32.75,-49.01 32.75,-39.96 32.75,-31.73"/>
<polygon fill="#63b8ff" stroke="#63b8ff" points="36.25,-31.81 32.75,-21.81 29.25,-31.81 36.25,-31.81"/>
</a>
</g>
</g>
</g>
</svg>
