<?xml version="1.0" encoding="UTF-8" standalone="no"?>
<!DOCTYPE svg PUBLIC "-//W3C//DTD SVG 1.1//EN"
 "http://www.w3.org/Graphics/SVG/1.1/DTD/svg11.dtd">
<!-- Generated by graphviz version 12.2.1 (20241206.2353)
 -->
<!-- Title: main.cpp Pages: 1 -->
<svg width="279pt" height="140pt"
 viewBox="0.00 0.00 279.25 140.00" xmlns="http://www.w3.org/2000/svg" xmlns:xlink="http://www.w3.org/1999/xlink">
<g id="graph0" class="graph" transform="scale(1 1) rotate(0) translate(4 136)">
<title>main.cpp</title>
<!-- Node1 -->
<g id="Node000001" class="node">
<title>Node1</title>
<g id="a_Node000001"><a xlink:title=" ">
<polygon fill="#999999" stroke="#666666" points="125.12,-132 69.38,-132 69.38,-112 125.12,-112 125.12,-132"/>
<text text-anchor="middle" x="97.25" y="-118.5" font-family="Helvetica,sans-Serif" font-size="10.00">main.cpp</text>
</a>
</g>
</g>
<!-- Node2 -->
<g id="Node000002" class="node">
<title>Node2</title>
<g id="a_Node000002"><a xlink:title=" ">
<polygon fill="#e0e0e0" stroke="#999999" points="92.5,-76 0,-76 0,-56 92.5,-56 92.5,-76"/>
<text text-anchor="middle" x="46.25" y="-62.5" font-family="Helvetica,sans-Serif" font-size="10.00">QCoreApplication</text>
</a>
</g>
</g>
<!-- Node1&#45;&gt;Node2 -->
<g id="edge1_Node000001_Node000002" class="edge">
<title>Node1&#45;&gt;Node2</title>
<g id="a_edge1_Node000001_Node000002"><a xlink:title=" ">
<path fill="none" stroke="#63b8ff" d="M88.37,-111.59C81.35,-104.16 71.35,-93.58 62.86,-84.58"/>
<polygon fill="#63b8ff" stroke="#63b8ff" points="65.48,-82.27 56.07,-77.4 60.39,-87.07 65.48,-82.27"/>
</a>
</g>
</g>
<!-- Node3 -->
<g id="Node000003" class="node">
<title>Node3</title>
<g id="a_Node000003"><a xlink:href="mytcpserver_8h.html" target="_top" xlink:title="TCP&#45;сервер для обработки клиентских запросов.">
<polygon fill="white" stroke="#666666" points="188.38,-76 110.12,-76 110.12,-56 188.38,-56 188.38,-76"/>
<text text-anchor="middle" x="149.25" y="-62.5" font-family="Helvetica,sans-Serif" font-size="10.00">mytcpserver.h</text>
</a>
</g>
</g>
<!-- Node1&#45;&gt;Node3 -->
<g id="edge2_Node000001_Node000003" class="edge">
<title>Node1&#45;&gt;Node3</title>
<g id="a_edge2_Node000001_Node000003"><a xlink:title=" ">
<path fill="none" stroke="#63b8ff" d="M106.31,-111.59C113.47,-104.16 123.66,-93.58 132.32,-84.58"/>
<polygon fill="#63b8ff" stroke="#63b8ff" points="134.83,-87.02 139.25,-77.39 129.79,-82.16 134.83,-87.02"/>
</a>
</g>
</g>
<!-- Node4 -->
<g id="Node000004" class="node">
<title>Node4</title>
<g id="a_Node000004"><a xlink:title=" ">
<polygon fill="#e0e0e0" stroke="#999999" points="97.25,-20 45.25,-20 45.25,0 97.25,0 97.25,-20"/>
<text text-anchor="middle" x="71.25" y="-6.5" font-family="Helvetica,sans-Serif" font-size="10.00">QObject</text>
</a>
</g>
</g>
<!-- Node3&#45;&gt;Node4 -->
<g id="edge3_Node000003_Node000004" class="edge">
<title>Node3&#45;&gt;Node4</title>
<g id="a_edge3_Node000003_Node000004"><a xlink:title=" ">
<path fill="none" stroke="#63b8ff" d="M135.66,-55.59C124.21,-47.67 107.59,-36.16 94.09,-26.82"/>
<polygon fill="#63b8ff" stroke="#63b8ff" points="96.4,-24.16 86.19,-21.34 92.42,-29.91 96.4,-24.16"/>
</a>
</g>
</g>
<!-- Node5 -->
<g id="Node000005" class="node">
<title>Node5</title>
<g id="a_Node000005"><a xlink:title=" ">
<polygon fill="#e0e0e0" stroke="#999999" points="183.12,-20 115.38,-20 115.38,0 183.12,0 183.12,-20"/>
<text text-anchor="middle" x="149.25" y="-6.5" font-family="Helvetica,sans-Serif" font-size="10.00">QTcpServer</text>
</a>
</g>
</g>
<!-- Node3&#45;&gt;Node5 -->
<g id="edge4_Node000003_Node000005" class="edge">
<title>Node3&#45;&gt;Node5</title>
<g id="a_edge4_Node000003_Node000005"><a xlink:title=" ">
<path fill="none" stroke="#63b8ff" d="M149.25,-55.59C149.25,-49.01 149.25,-39.96 149.25,-31.73"/>
<polygon fill="#63b8ff" stroke="#63b8ff" points="152.75,-31.81 149.25,-21.81 145.75,-31.81 152.75,-31.81"/>
</a>
</g>
</g>
<!-- Node6 -->
<g id="Node000006" class="node">
<title>Node6</title>
<g id="a_Node000006"><a xlink:title=" ">
<polygon fill="#e0e0e0" stroke="#999999" points="271.25,-20 201.25,-20 201.25,0 271.25,0 271.25,-20"/>
<text text-anchor="middle" x="236.25" y="-6.5" font-family="Helvetica,sans-Serif" font-size="10.00">QTcpSocket</text>
</a>
</g>
</g>
<!-- Node3&#45;&gt;Node6 -->
<g id="edge5_Node000003_Node000006" class="edge">
<title>Node3&#45;&gt;Node6</title>
<g id="a_edge5_Node000003_Node000006"><a xlink:title=" ">
<path fill="none" stroke="#63b8ff" d="M164.4,-55.59C177.3,-47.59 196.08,-35.93 211.21,-26.54"/>
<polygon fill="#63b8ff" stroke="#63b8ff" points="213.04,-29.53 219.69,-21.28 209.35,-23.58 213.04,-29.53"/>
</a>
</g>
</g>
</g>
</svg>
