<?xml version="1.0" encoding="UTF-8" standalone="no"?>
<!DOCTYPE svg PUBLIC "-//W3C//DTD SVG 1.1//EN"
 "http://www.w3.org/Graphics/SVG/1.1/DTD/svg11.dtd">
<!-- Generated by graphviz version 12.2.1 (20241206.2353)
 -->
<!-- Title: mytcpserver.h Pages: 1 -->
<svg width="234pt" height="84pt"
 viewBox="0.00 0.00 234.00 84.00" xmlns="http://www.w3.org/2000/svg" xmlns:xlink="http://www.w3.org/1999/xlink">
<g id="graph0" class="graph" transform="scale(1 1) rotate(0) translate(4 80)">
<title>mytcpserver.h</title>
<!-- Node1 -->
<g id="Node000001" class="node">
<title>Node1</title>
<g id="a_Node000001"><a xlink:title="TCP&#45;сервер для обработки клиентских запросов.">
<polygon fill="#999999" stroke="#666666" points="143.12,-76 64.88,-76 64.88,-56 143.12,-56 143.12,-76"/>
<text text-anchor="middle" x="104" y="-62.5" font-family="Helvetica,sans-Serif" font-size="10.00">mytcpserver.h</text>
</a>
</g>
</g>
<!-- Node2 -->
<g id="Node000002" class="node">
<title>Node2</title>
<g id="a_Node000002"><a xlink:title=" ">
<polygon fill="#e0e0e0" stroke="#999999" points="52,-20 0,-20 0,0 52,0 52,-20"/>
<text text-anchor="middle" x="26" y="-6.5" font-family="Helvetica,sans-Serif" font-size="10.00">QObject</text>
</a>
</g>
</g>
<!-- Node1&#45;&gt;Node2 -->
<g id="edge1_Node000001_Node000002" class="edge">
<title>Node1&#45;&gt;Node2</title>
<g id="a_edge1_Node000001_Node000002"><a xlink:title=" ">
<path fill="none" stroke="#63b8ff" d="M90.41,-55.59C78.96,-47.67 62.34,-36.16 48.84,-26.82"/>
<polygon fill="#63b8ff" stroke="#63b8ff" points="51.15,-24.16 40.94,-21.34 47.17,-29.91 51.15,-24.16"/>
</a>
</g>
</g>
<!-- Node3 -->
<g id="Node000003" class="node">
<title>Node3</title>
<g id="a_Node000003"><a xlink:title=" ">
<polygon fill="#e0e0e0" stroke="#999999" points="137.88,-20 70.12,-20 70.12,0 137.88,0 137.88,-20"/>
<text text-anchor="middle" x="104" y="-6.5" font-family="Helvetica,sans-Serif" font-size="10.00">QTcpServer</text>
</a>
</g>
</g>
<!-- Node1&#45;&gt;Node3 -->
<g id="edge2_Node000001_Node000003" class="edge">
<title>Node1&#45;&gt;Node3</title>
<g id="a_edge2_Node000001_Node000003"><a xlink:title=" ">
<path fill="none" stroke="#63b8ff" d="M104,-55.59C104,-49.01 104,-39.96 104,-31.73"/>
<polygon fill="#63b8ff" stroke="#63b8ff" points="107.5,-31.81 104,-21.81 100.5,-31.81 107.5,-31.81"/>
</a>
</g>
</g>
<!-- Node4 -->
<g id="Node000004" class="node">
<title>Node4</title>
<g id="a_Node000004"><a xlink:title=" ">
<polygon fill="#e0e0e0" stroke="#999999" points="226,-20 156,-20 156,0 226,0 226,-20"/>
<text text-anchor="middle" x="191" y="-6.5" font-family="Helvetica,sans-Serif" font-size="10.00">QTcpSocket</text>
</a>
</g>
</g>
<!-- Node1&#45;&gt;Node4 -->
<g id="edge3_Node000001_Node000004" class="edge">
<title>Node1&#45;&gt;Node4</title>
<g id="a_edge3_Node000001_Node000004"><a xlink:title=" ">
<path fill="none" stroke="#63b8ff" d="M119.15,-55.59C132.05,-47.59 150.83,-35.93 165.96,-26.54"/>
<polygon fill="#63b8ff" stroke="#63b8ff" points="167.79,-29.53 174.44,-21.28 164.1,-23.58 167.79,-29.53"/>
</a>
</g>
</g>
</g>
</svg>
