<?xml version="1.0" encoding="UTF-8" standalone="no"?>
<!DOCTYPE svg PUBLIC "-//W3C//DTD SVG 1.1//EN"
 "http://www.w3.org/Graphics/SVG/1.1/DTD/svg11.dtd">
<!-- Generated by graphviz version 12.2.1 (20241206.2353)
 -->
<!-- Title: mytcpserver.cpp Pages: 1 -->
<svg width="1147pt" height="140pt"
 viewBox="0.00 0.00 1146.50 140.00" xmlns="http://www.w3.org/2000/svg" xmlns:xlink="http://www.w3.org/1999/xlink">
<g id="graph0" class="graph" transform="scale(1 1) rotate(0) translate(4 136)">
<title>mytcpserver.cpp</title>
<!-- Node1 -->
<g id="Node000001" class="node">
<title>Node1</title>
<g id="a_Node000001"><a xlink:title=" ">
<polygon fill="#999999" stroke="#666666" points="674.38,-132 585.62,-132 585.62,-112 674.38,-112 674.38,-132"/>
<text text-anchor="middle" x="630" y="-118.5" font-family="Helvetica,sans-Serif" font-size="10.00">mytcpserver.cpp</text>
</a>
</g>
</g>
<!-- Node2 -->
<g id="Node000002" class="node">
<title>Node2</title>
<g id="a_Node000002"><a xlink:href="mytcpserver_8h.html" target="_top" xlink:title="TCP&#45;сервер для обработки клиентских запросов.">
<polygon fill="white" stroke="#666666" points="143.12,-76 64.88,-76 64.88,-56 143.12,-56 143.12,-76"/>
<text text-anchor="middle" x="104" y="-62.5" font-family="Helvetica,sans-Serif" font-size="10.00">mytcpserver.h</text>
</a>
</g>
</g>
<!-- Node1&#45;&gt;Node2 -->
<g id="edge1_Node000001_Node000002" class="edge">
<title>Node1&#45;&gt;Node2</title>
<g id="a_edge1_Node000001_Node000002"><a xlink:title=" ">
<path fill="none" stroke="#63b8ff" d="M585.13,-118.08C502.31,-112.42 319.64,-98.59 154.86,-76.13"/>
<polygon fill="#63b8ff" stroke="#63b8ff" points="155.42,-72.67 145.03,-74.77 154.46,-79.61 155.42,-72.67"/>
</a>
</g>
</g>
<!-- Node6 -->
<g id="Node000006" class="node">
<title>Node6</title>
<g id="a_Node000006"><a xlink:href="userutils_8h.html" target="_top" xlink:title="Утилиты для работы с пользователями (регистрация, аутентификация, восстановление пароля).">
<polygon fill="white" stroke="#666666" points="222.5,-76 161.5,-76 161.5,-56 222.5,-56 222.5,-76"/>
<text text-anchor="middle" x="192" y="-62.5" font-family="Helvetica,sans-Serif" font-size="10.00">userutils.h</text>
</a>
</g>
</g>
<!-- Node1&#45;&gt;Node6 -->
<g id="edge5_Node000001_Node000006" class="edge">
<title>Node1&#45;&gt;Node6</title>
<g id="a_edge5_Node000001_Node000006"><a xlink:title=" ">
<path fill="none" stroke="#63b8ff" d="M585.18,-117.63C513.14,-111.85 366.91,-98.6 233.78,-76.31"/>
<polygon fill="#63b8ff" stroke="#63b8ff" points="234.53,-72.89 224.08,-74.66 233.35,-79.79 234.53,-72.89"/>
</a>
</g>
</g>
<!-- Node8 -->
<g id="Node000008" class="node">
<title>Node8</title>
<g id="a_Node000008"><a xlink:href="emailutils_8h.html" target="_top" xlink:title="Утилиты для отправки email через SSL.">
<polygon fill="white" stroke="#666666" points="305.75,-76 240.25,-76 240.25,-56 305.75,-56 305.75,-76"/>
<text text-anchor="middle" x="273" y="-62.5" font-family="Helvetica,sans-Serif" font-size="10.00">emailutils.h</text>
</a>
</g>
</g>
<!-- Node1&#45;&gt;Node8 -->
<g id="edge7_Node000001_Node000008" class="edge">
<title>Node1&#45;&gt;Node8</title>
<g id="a_edge7_Node000001_Node000008"><a xlink:title=" ">
<path fill="none" stroke="#63b8ff" d="M585.24,-115.6C526.18,-108.25 418.75,-94.13 317.06,-76.26"/>
<polygon fill="#63b8ff" stroke="#63b8ff" points="317.92,-72.86 307.46,-74.56 316.7,-79.75 317.92,-72.86"/>
</a>
</g>
</g>
<!-- Node9 -->
<g id="Node000009" class="node">
<title>Node9</title>
<g id="a_Node000009"><a xlink:title=" ">
<polygon fill="#e0e0e0" stroke="#999999" points="388,-76 324,-76 324,-56 388,-56 388,-76"/>
<text text-anchor="middle" x="356" y="-62.5" font-family="Helvetica,sans-Serif" font-size="10.00">QSqlQuery</text>
</a>
</g>
</g>
<!-- Node1&#45;&gt;Node9 -->
<g id="edge9_Node000001_Node000009" class="edge">
<title>Node1&#45;&gt;Node9</title>
<g id="a_edge9_Node000001_Node000009"><a xlink:title=" ">
<path fill="none" stroke="#63b8ff" d="M585.27,-112.71C540.6,-104.35 469.71,-90.88 399.08,-76.39"/>
<polygon fill="#63b8ff" stroke="#63b8ff" points="400.2,-73.05 389.69,-74.46 398.78,-79.9 400.2,-73.05"/>
</a>
</g>
</g>
<!-- Node10 -->
<g id="Node000010" class="node">
<title>Node10</title>
<g id="a_Node000010"><a xlink:title=" ">
<polygon fill="#e0e0e0" stroke="#999999" points="464.38,-76 405.62,-76 405.62,-56 464.38,-56 464.38,-76"/>
<text text-anchor="middle" x="435" y="-62.5" font-family="Helvetica,sans-Serif" font-size="10.00">QSqlError</text>
</a>
</g>
</g>
<!-- Node1&#45;&gt;Node10 -->
<g id="edge10_Node000001_Node000010" class="edge">
<title>Node1&#45;&gt;Node10</title>
<g id="a_edge10_Node000001_Node000010"><a xlink:title=" ">
<path fill="none" stroke="#63b8ff" d="M596.03,-111.59C562.56,-102.32 511.38,-88.15 475.73,-78.28"/>
<polygon fill="#63b8ff" stroke="#63b8ff" points="476.78,-74.94 466.21,-75.64 474.91,-81.68 476.78,-74.94"/>
</a>
</g>
</g>
<!-- Node11 -->
<g id="Node000011" class="node">
<title>Node11</title>
<g id="a_Node000011"><a xlink:title=" ">
<polygon fill="#e0e0e0" stroke="#999999" points="585.5,-76 482.5,-76 482.5,-56 585.5,-56 585.5,-76"/>
<text text-anchor="middle" x="534" y="-62.5" font-family="Helvetica,sans-Serif" font-size="10.00">QRandomGenerator</text>
</a>
</g>
</g>
<!-- Node1&#45;&gt;Node11 -->
<g id="edge11_Node000001_Node000011" class="edge">
<title>Node1&#45;&gt;Node11</title>
<g id="a_edge11_Node000001_Node000011"><a xlink:title=" ">
<path fill="none" stroke="#63b8ff" d="M613.28,-111.59C598.78,-103.44 577.53,-91.48 560.68,-82"/>
<polygon fill="#63b8ff" stroke="#63b8ff" points="562.6,-79.07 552.17,-77.22 559.17,-85.17 562.6,-79.07"/>
</a>
</g>
</g>
<!-- Node12 -->
<g id="Node000012" class="node">
<title>Node12</title>
<g id="a_Node000012"><a xlink:title=" ">
<polygon fill="#e0e0e0" stroke="#999999" points="656,-76 604,-76 604,-56 656,-56 656,-76"/>
<text text-anchor="middle" x="630" y="-62.5" font-family="Helvetica,sans-Serif" font-size="10.00">QDebug</text>
</a>
</g>
</g>
<!-- Node1&#45;&gt;Node12 -->
<g id="edge12_Node000001_Node000012" class="edge">
<title>Node1&#45;&gt;Node12</title>
<g id="a_edge12_Node000001_Node000012"><a xlink:title=" ">
<path fill="none" stroke="#63b8ff" d="M630,-111.59C630,-105.01 630,-95.96 630,-87.73"/>
<polygon fill="#63b8ff" stroke="#63b8ff" points="633.5,-87.81 630,-77.81 626.5,-87.81 633.5,-87.81"/>
</a>
</g>
</g>
<!-- Node13 -->
<g id="Node000013" class="node">
<title>Node13</title>
<g id="a_Node000013"><a xlink:title=" ">
<polygon fill="#e0e0e0" stroke="#999999" points="766.25,-76 673.75,-76 673.75,-56 766.25,-56 766.25,-76"/>
<text text-anchor="middle" x="720" y="-62.5" font-family="Helvetica,sans-Serif" font-size="10.00">QCoreApplication</text>
</a>
</g>
</g>
<!-- Node1&#45;&gt;Node13 -->
<g id="edge13_Node000001_Node000013" class="edge">
<title>Node1&#45;&gt;Node13</title>
<g id="a_edge13_Node000001_Node000013"><a xlink:title=" ">
<path fill="none" stroke="#63b8ff" d="M645.68,-111.59C659.14,-103.51 678.82,-91.71 694.54,-82.27"/>
<polygon fill="#63b8ff" stroke="#63b8ff" points="696.13,-85.4 702.9,-77.26 692.53,-79.4 696.13,-85.4"/>
</a>
</g>
</g>
<!-- Node14 -->
<g id="Node000014" class="node">
<title>Node14</title>
<g id="a_Node000014"><a xlink:title=" ">
<polygon fill="#e0e0e0" stroke="#999999" points="820.12,-76 783.88,-76 783.88,-56 820.12,-56 820.12,-76"/>
<text text-anchor="middle" x="802" y="-62.5" font-family="Helvetica,sans-Serif" font-size="10.00">QDir</text>
</a>
</g>
</g>
<!-- Node1&#45;&gt;Node14 -->
<g id="edge14_Node000001_Node000014" class="edge">
<title>Node1&#45;&gt;Node14</title>
<g id="a_edge14_Node000001_Node000014"><a xlink:title=" ">
<path fill="none" stroke="#63b8ff" d="M661.17,-111.53C688.34,-103.23 729.05,-90.69 772.6,-76.73"/>
<polygon fill="#63b8ff" stroke="#63b8ff" points="773.54,-80.11 781.98,-73.71 771.39,-73.44 773.54,-80.11"/>
</a>
</g>
</g>
<!-- Node15 -->
<g id="Node000015" class="node">
<title>Node15</title>
<g id="a_Node000015"><a xlink:title=" ">
<polygon fill="#e0e0e0" stroke="#999999" points="944,-76 838,-76 838,-56 944,-56 944,-76"/>
<text text-anchor="middle" x="891" y="-62.5" font-family="Helvetica,sans-Serif" font-size="10.00">QRegularExpression</text>
</a>
</g>
</g>
<!-- Node1&#45;&gt;Node15 -->
<g id="edge15_Node000001_Node000015" class="edge">
<title>Node1&#45;&gt;Node15</title>
<g id="a_edge15_Node000001_Node000015"><a xlink:title=" ">
<path fill="none" stroke="#63b8ff" d="M674.87,-111.72C718.99,-102.59 786.5,-88.62 834.31,-78.73"/>
<polygon fill="#63b8ff" stroke="#63b8ff" points="834.84,-82.19 843.92,-76.74 833.42,-75.34 834.84,-82.19"/>
</a>
</g>
</g>
<!-- Node16 -->
<g id="Node000016" class="node">
<title>Node16</title>
<g id="a_Node000016"><a xlink:href="tinyexpr_8h.html" target="_top" xlink:title="Легковесный парсер математических выражений (лицензия Zlib).">
<polygon fill="white" stroke="#666666" points="1020.38,-76 961.62,-76 961.62,-56 1020.38,-56 1020.38,-76"/>
<text text-anchor="middle" x="991" y="-62.5" font-family="Helvetica,sans-Serif" font-size="10.00">tinyexpr.h</text>
</a>
</g>
</g>
<!-- Node1&#45;&gt;Node16 -->
<g id="edge16_Node000001_Node000016" class="edge">
<title>Node1&#45;&gt;Node16</title>
<g id="a_edge16_Node000001_Node000016"><a xlink:title=" ">
<path fill="none" stroke="#63b8ff" d="M674.63,-116.13C734.95,-109.25 846.06,-95.54 949.87,-76.45"/>
<polygon fill="#63b8ff" stroke="#63b8ff" points="950.51,-79.89 959.7,-74.62 949.23,-73.01 950.51,-79.89"/>
</a>
</g>
</g>
<!-- Node17 -->
<g id="Node000017" class="node">
<title>Node17</title>
<g id="a_Node000017"><a xlink:title=" ">
<polygon fill="#e0e0e0" stroke="#999999" points="1077.62,-76 1038.38,-76 1038.38,-56 1077.62,-56 1077.62,-76"/>
<text text-anchor="middle" x="1058" y="-62.5" font-family="Helvetica,sans-Serif" font-size="10.00">limits</text>
</a>
</g>
</g>
<!-- Node1&#45;&gt;Node17 -->
<g id="edge17_Node000001_Node000017" class="edge">
<title>Node1&#45;&gt;Node17</title>
<g id="a_edge17_Node000001_Node000017"><a xlink:title=" ">
<path fill="none" stroke="#63b8ff" d="M674.72,-118.71C746.94,-114.42 893.78,-103.23 1026.96,-76.03"/>
<polygon fill="#63b8ff" stroke="#63b8ff" points="1027.6,-79.47 1036.68,-74.01 1026.18,-72.62 1027.6,-79.47"/>
</a>
</g>
</g>
<!-- Node18 -->
<g id="Node000018" class="node">
<title>Node18</title>
<g id="a_Node000018"><a xlink:title=" ">
<polygon fill="#e0e0e0" stroke="#999999" points="1138.5,-76 1095.5,-76 1095.5,-56 1138.5,-56 1138.5,-76"/>
<text text-anchor="middle" x="1117" y="-62.5" font-family="Helvetica,sans-Serif" font-size="10.00">cmath</text>
</a>
</g>
</g>
<!-- Node1&#45;&gt;Node18 -->
<g id="edge18_Node000001_Node000018" class="edge">
<title>Node1&#45;&gt;Node18</title>
<g id="a_edge18_Node000001_Node000018"><a xlink:title=" ">
<path fill="none" stroke="#63b8ff" d="M674.85,-119.46C755.29,-116.07 929.39,-105.93 1084.07,-76.25"/>
<polygon fill="#63b8ff" stroke="#63b8ff" points="1084.54,-79.73 1093.68,-74.37 1083.2,-72.86 1084.54,-79.73"/>
</a>
</g>
</g>
<!-- Node3 -->
<g id="Node000003" class="node">
<title>Node3</title>
<g id="a_Node000003"><a xlink:title=" ">
<polygon fill="#e0e0e0" stroke="#999999" points="52,-20 0,-20 0,0 52,0 52,-20"/>
<text text-anchor="middle" x="26" y="-6.5" font-family="Helvetica,sans-Serif" font-size="10.00">QObject</text>
</a>
</g>
</g>
<!-- Node2&#45;&gt;Node3 -->
<g id="edge2_Node000002_Node000003" class="edge">
<title>Node2&#45;&gt;Node3</title>
<g id="a_edge2_Node000002_Node000003"><a xlink:title=" ">
<path fill="none" stroke="#63b8ff" d="M90.41,-55.59C78.96,-47.67 62.34,-36.16 48.84,-26.82"/>
<polygon fill="#63b8ff" stroke="#63b8ff" points="51.15,-24.16 40.94,-21.34 47.17,-29.91 51.15,-24.16"/>
</a>
</g>
</g>
<!-- Node4 -->
<g id="Node000004" class="node">
<title>Node4</title>
<g id="a_Node000004"><a xlink:title=" ">
<polygon fill="#e0e0e0" stroke="#999999" points="137.88,-20 70.12,-20 70.12,0 137.88,0 137.88,-20"/>
<text text-anchor="middle" x="104" y="-6.5" font-family="Helvetica,sans-Serif" font-size="10.00">QTcpServer</text>
</a>
</g>
</g>
<!-- Node2&#45;&gt;Node4 -->
<g id="edge3_Node000002_Node000004" class="edge">
<title>Node2&#45;&gt;Node4</title>
<g id="a_edge3_Node000002_Node000004"><a xlink:title=" ">
<path fill="none" stroke="#63b8ff" d="M104,-55.59C104,-49.01 104,-39.96 104,-31.73"/>
<polygon fill="#63b8ff" stroke="#63b8ff" points="107.5,-31.81 104,-21.81 100.5,-31.81 107.5,-31.81"/>
</a>
</g>
</g>
<!-- Node5 -->
<g id="Node000005" class="node">
<title>Node5</title>
<g id="a_Node000005"><a xlink:title=" ">
<polygon fill="#e0e0e0" stroke="#999999" points="226,-20 156,-20 156,0 226,0 226,-20"/>
<text text-anchor="middle" x="191" y="-6.5" font-family="Helvetica,sans-Serif" font-size="10.00">QTcpSocket</text>
</a>
</g>
</g>
<!-- Node2&#45;&gt;Node5 -->
<g id="edge4_Node000002_Node000005" class="edge">
<title>Node2&#45;&gt;Node5</title>
<g id="a_edge4_Node000002_Node000005"><a xlink:title=" ">
<path fill="none" stroke="#63b8ff" d="M119.15,-55.59C132.05,-47.59 150.83,-35.93 165.96,-26.54"/>
<polygon fill="#63b8ff" stroke="#63b8ff" points="167.79,-29.53 174.44,-21.28 164.1,-23.58 167.79,-29.53"/>
</a>
</g>
</g>
<!-- Node7 -->
<g id="Node000007" class="node">
<title>Node7</title>
<g id="a_Node000007"><a xlink:title=" ">
<polygon fill="#e0e0e0" stroke="#999999" points="295.5,-20 246.5,-20 246.5,0 295.5,0 295.5,-20"/>
<text text-anchor="middle" x="271" y="-6.5" font-family="Helvetica,sans-Serif" font-size="10.00">QString</text>
</a>
</g>
</g>
<!-- Node6&#45;&gt;Node7 -->
<g id="edge6_Node000006_Node000007" class="edge">
<title>Node6&#45;&gt;Node7</title>
<g id="a_edge6_Node000006_Node000007"><a xlink:title=" ">
<path fill="none" stroke="#63b8ff" d="M205.76,-55.59C217.36,-47.67 234.2,-36.16 247.86,-26.82"/>
<polygon fill="#63b8ff" stroke="#63b8ff" points="249.6,-29.87 255.88,-21.33 245.65,-24.09 249.6,-29.87"/>
</a>
</g>
</g>
<!-- Node8&#45;&gt;Node7 -->
<g id="edge8_Node000008_Node000007" class="edge">
<title>Node8&#45;&gt;Node7</title>
<g id="a_edge8_Node000008_Node000007"><a xlink:title=" ">
<path fill="none" stroke="#63b8ff" d="M272.65,-55.59C272.41,-49.01 272.07,-39.96 271.77,-31.73"/>
<polygon fill="#63b8ff" stroke="#63b8ff" points="275.27,-31.67 271.4,-21.81 268.27,-31.93 275.27,-31.67"/>
</a>
</g>
</g>
</g>
</svg>
