<?xml version="1.0" encoding="UTF-8" standalone="no"?>
<!DOCTYPE svg PUBLIC "-//W3C//DTD SVG 1.1//EN"
 "http://www.w3.org/Graphics/SVG/1.1/DTD/svg11.dtd">
<!-- Generated by graphviz version 12.2.1 (20241206.2353)
 -->
<!-- Title: te_variable Pages: 1 -->
<svg width="63pt" height="108pt"
 viewBox="0.00 0.00 63.25 108.00" xmlns="http://www.w3.org/2000/svg" xmlns:xlink="http://www.w3.org/1999/xlink">
<g id="graph0" class="graph" transform="scale(1 1) rotate(0) translate(4 104)">
<title>te_variable</title>
<!-- Node1 -->
<g id="Node000001" class="node">
<title>Node1</title>
<g id="a_Node000001"><a xlink:title="Описание переменной для парсера.">
<polygon fill="#999999" stroke="none" points="55.25,-100 0,-100 0,0 55.25,0 55.25,-100"/>
<text text-anchor="start" x="4" y="-86.5" font-family="Helvetica,sans-Serif" font-size="10.00">te_variable</text>
<text text-anchor="start" x="4.69" y="-70.5" font-family="Helvetica,sans-Serif" font-size="10.00">+</text>
<text text-anchor="start" x="15.38" y="-70.5" font-family="Helvetica,sans-Serif" font-size="10.00">address</text>
<text text-anchor="start" x="4.69" y="-54.5" font-family="Helvetica,sans-Serif" font-size="10.00">+</text>
<text text-anchor="start" x="15.38" y="-54.5" font-family="Helvetica,sans-Serif" font-size="10.00">context</text>
<text text-anchor="start" x="4.69" y="-38.5" font-family="Helvetica,sans-Serif" font-size="10.00">+</text>
<text text-anchor="start" x="15.38" y="-38.5" font-family="Helvetica,sans-Serif" font-size="10.00">name</text>
<text text-anchor="start" x="4.69" y="-22.5" font-family="Helvetica,sans-Serif" font-size="10.00">+</text>
<text text-anchor="start" x="15.38" y="-22.5" font-family="Helvetica,sans-Serif" font-size="10.00">type</text>
<text text-anchor="start" x="26.12" y="-6.5" font-family="Helvetica,sans-Serif" font-size="10.00"> </text>
<polygon fill="#666666" stroke="#666666" points="0,-82 0,-82 55.25,-82 55.25,-82 0,-82"/>
<polygon fill="#666666" stroke="#666666" points="0,-18 0,-18 13.38,-18 13.38,-18 0,-18"/>
<polygon fill="#666666" stroke="#666666" points="13.38,-18 13.38,-18 55.25,-18 55.25,-18 13.38,-18"/>
<polygon fill="none" stroke="#666666" points="0,0 0,-100 55.25,-100 55.25,0 0,0"/>
</a>
</g>
</g>
</g>
</svg>
