<?xml version="1.0" encoding="UTF-8" standalone="no"?>
<!DOCTYPE svg PUBLIC "-//W3C//DTD SVG 1.1//EN"
 "http://www.w3.org/Graphics/SVG/1.1/DTD/svg11.dtd">
<!-- Generated by graphviz version 12.2.1 (20241206.2353)
 -->
<!-- Title: userutils.cpp Pages: 1 -->
<svg width="545pt" height="140pt"
 viewBox="0.00 0.00 545.00 140.00" xmlns="http://www.w3.org/2000/svg" xmlns:xlink="http://www.w3.org/1999/xlink">
<g id="graph0" class="graph" transform="scale(1 1) rotate(0) translate(4 136)">
<title>userutils.cpp</title>
<!-- Node1 -->
<g id="Node000001" class="node">
<title>Node1</title>
<g id="a_Node000001"><a xlink:title=" ">
<polygon fill="#999999" stroke="#666666" points="276.25,-132 204.75,-132 204.75,-112 276.25,-112 276.25,-132"/>
<text text-anchor="middle" x="240.5" y="-118.5" font-family="Helvetica,sans-Serif" font-size="10.00">userutils.cpp</text>
</a>
</g>
</g>
<!-- Node2 -->
<g id="Node000002" class="node">
<title>Node2</title>
<g id="a_Node000002"><a xlink:href="userutils_8h.html" target="_top" xlink:title="Утилиты для работы с пользователями (регистрация, аутентификация, восстановление пароля).">
<polygon fill="white" stroke="#666666" points="61,-76 0,-76 0,-56 61,-56 61,-76"/>
<text text-anchor="middle" x="30.5" y="-62.5" font-family="Helvetica,sans-Serif" font-size="10.00">userutils.h</text>
</a>
</g>
</g>
<!-- Node1&#45;&gt;Node2 -->
<g id="edge1_Node000001_Node000002" class="edge">
<title>Node1&#45;&gt;Node2</title>
<g id="a_edge1_Node000001_Node000002"><a xlink:title=" ">
<path fill="none" stroke="#63b8ff" d="M204.4,-111.72C167.68,-102.28 110.84,-87.66 72.22,-77.73"/>
<polygon fill="#63b8ff" stroke="#63b8ff" points="73.37,-74.41 62.82,-75.31 71.63,-81.19 73.37,-74.41"/>
</a>
</g>
</g>
<!-- Node4 -->
<g id="Node000004" class="node">
<title>Node4</title>
<g id="a_Node000004"><a xlink:title=" ">
<polygon fill="#e0e0e0" stroke="#999999" points="143.5,-76 79.5,-76 79.5,-56 143.5,-56 143.5,-76"/>
<text text-anchor="middle" x="111.5" y="-62.5" font-family="Helvetica,sans-Serif" font-size="10.00">QSqlQuery</text>
</a>
</g>
</g>
<!-- Node1&#45;&gt;Node4 -->
<g id="edge3_Node000001_Node000004" class="edge">
<title>Node1&#45;&gt;Node4</title>
<g id="a_edge3_Node000001_Node000004"><a xlink:title=" ">
<path fill="none" stroke="#63b8ff" d="M218.03,-111.59C197.71,-103.09 167.55,-90.46 144.49,-80.81"/>
<polygon fill="#63b8ff" stroke="#63b8ff" points="146.12,-77.7 135.54,-77.06 143.41,-84.15 146.12,-77.7"/>
</a>
</g>
</g>
<!-- Node5 -->
<g id="Node000005" class="node">
<title>Node5</title>
<g id="a_Node000005"><a xlink:title=" ">
<polygon fill="#e0e0e0" stroke="#999999" points="219.88,-76 161.12,-76 161.12,-56 219.88,-56 219.88,-76"/>
<text text-anchor="middle" x="190.5" y="-62.5" font-family="Helvetica,sans-Serif" font-size="10.00">QSqlError</text>
</a>
</g>
</g>
<!-- Node1&#45;&gt;Node5 -->
<g id="edge4_Node000001_Node000005" class="edge">
<title>Node1&#45;&gt;Node5</title>
<g id="a_edge4_Node000001_Node000005"><a xlink:title=" ">
<path fill="none" stroke="#63b8ff" d="M231.79,-111.59C224.91,-104.16 215.11,-93.58 206.78,-84.58"/>
<polygon fill="#63b8ff" stroke="#63b8ff" points="209.5,-82.37 200.14,-77.41 204.36,-87.12 209.5,-82.37"/>
</a>
</g>
</g>
<!-- Node6 -->
<g id="Node000006" class="node">
<title>Node6</title>
<g id="a_Node000006"><a xlink:title=" ">
<polygon fill="#e0e0e0" stroke="#999999" points="345.25,-76 237.75,-76 237.75,-56 345.25,-56 345.25,-76"/>
<text text-anchor="middle" x="291.5" y="-62.5" font-family="Helvetica,sans-Serif" font-size="10.00">QCryptographicHash</text>
</a>
</g>
</g>
<!-- Node1&#45;&gt;Node6 -->
<g id="edge5_Node000001_Node000006" class="edge">
<title>Node1&#45;&gt;Node6</title>
<g id="a_edge5_Node000001_Node000006"><a xlink:title=" ">
<path fill="none" stroke="#63b8ff" d="M249.38,-111.59C256.4,-104.16 266.4,-93.58 274.89,-84.58"/>
<polygon fill="#63b8ff" stroke="#63b8ff" points="277.36,-87.07 281.68,-77.4 272.27,-82.27 277.36,-87.07"/>
</a>
</g>
</g>
<!-- Node7 -->
<g id="Node000007" class="node">
<title>Node7</title>
<g id="a_Node000007"><a xlink:title=" ">
<polygon fill="#e0e0e0" stroke="#999999" points="415.5,-76 363.5,-76 363.5,-56 415.5,-56 415.5,-76"/>
<text text-anchor="middle" x="389.5" y="-62.5" font-family="Helvetica,sans-Serif" font-size="10.00">QDebug</text>
</a>
</g>
</g>
<!-- Node1&#45;&gt;Node7 -->
<g id="edge6_Node000001_Node000007" class="edge">
<title>Node1&#45;&gt;Node7</title>
<g id="a_edge6_Node000001_Node000007"><a xlink:title=" ">
<path fill="none" stroke="#63b8ff" d="M266.45,-111.59C290.34,-102.94 326.03,-90 352.83,-80.29"/>
<polygon fill="#63b8ff" stroke="#63b8ff" points="353.71,-83.69 361.92,-77 351.33,-77.11 353.71,-83.69"/>
</a>
</g>
</g>
<!-- Node8 -->
<g id="Node000008" class="node">
<title>Node8</title>
<g id="a_Node000008"><a xlink:title=" ">
<polygon fill="#e0e0e0" stroke="#999999" points="537,-76 434,-76 434,-56 537,-56 537,-76"/>
<text text-anchor="middle" x="485.5" y="-62.5" font-family="Helvetica,sans-Serif" font-size="10.00">QRandomGenerator</text>
</a>
</g>
</g>
<!-- Node1&#45;&gt;Node8 -->
<g id="edge7_Node000001_Node000008" class="edge">
<title>Node1&#45;&gt;Node8</title>
<g id="a_edge7_Node000001_Node000008"><a xlink:title=" ">
<path fill="none" stroke="#63b8ff" d="M276.65,-113.03C317.48,-104.03 384.34,-89.3 431.39,-78.93"/>
<polygon fill="#63b8ff" stroke="#63b8ff" points="432.11,-82.35 441.12,-76.78 430.6,-75.52 432.11,-82.35"/>
</a>
</g>
</g>
<!-- Node3 -->
<g id="Node000003" class="node">
<title>Node3</title>
<g id="a_Node000003"><a xlink:title=" ">
<polygon fill="#e0e0e0" stroke="#999999" points="55,-20 6,-20 6,0 55,0 55,-20"/>
<text text-anchor="middle" x="30.5" y="-6.5" font-family="Helvetica,sans-Serif" font-size="10.00">QString</text>
</a>
</g>
</g>
<!-- Node2&#45;&gt;Node3 -->
<g id="edge2_Node000002_Node000003" class="edge">
<title>Node2&#45;&gt;Node3</title>
<g id="a_edge2_Node000002_Node000003"><a xlink:title=" ">
<path fill="none" stroke="#63b8ff" d="M30.5,-55.59C30.5,-49.01 30.5,-39.96 30.5,-31.73"/>
<polygon fill="#63b8ff" stroke="#63b8ff" points="34,-31.81 30.5,-21.81 27,-31.81 34,-31.81"/>
</a>
</g>
</g>
</g>
</svg>
