<?xml version="1.0" encoding="UTF-8" standalone="no"?>
<!DOCTYPE svg PUBLIC "-//W3C//DTD SVG 1.1//EN"
 "http://www.w3.org/Graphics/SVG/1.1/DTD/svg11.dtd">
<!-- Generated by graphviz version 12.2.1 (20241206.2353)
 -->
<!-- Title: userutils.h Pages: 1 -->
<svg width="186pt" height="84pt"
 viewBox="0.00 0.00 186.12 84.00" xmlns="http://www.w3.org/2000/svg" xmlns:xlink="http://www.w3.org/1999/xlink">
<g id="graph0" class="graph" transform="scale(1 1) rotate(0) translate(4 80)">
<title>userutils.h</title>
<!-- Node1 -->
<g id="Node000001" class="node">
<title>Node1</title>
<g id="a_Node000001"><a xlink:title="Утилиты для работы с пользователями (регистрация, аутентификация, восстановление пароля).">
<polygon fill="#999999" stroke="#666666" points="123.88,-76 62.88,-76 62.88,-56 123.88,-56 123.88,-76"/>
<text text-anchor="middle" x="93.38" y="-62.5" font-family="Helvetica,sans-Serif" font-size="10.00">userutils.h</text>
</a>
</g>
</g>
<!-- Node2 -->
<g id="Node000002" class="node">
<title>Node2</title>
<g id="a_Node000002"><a xlink:href="mytcpserver_8cpp.html" target="_top" xlink:title=" ">
<polygon fill="white" stroke="#666666" points="88.75,-20 0,-20 0,0 88.75,0 88.75,-20"/>
<text text-anchor="middle" x="44.38" y="-6.5" font-family="Helvetica,sans-Serif" font-size="10.00">mytcpserver.cpp</text>
</a>
</g>
</g>
<!-- Node1&#45;&gt;Node2 -->
<g id="edge1_Node000001_Node000002" class="edge">
<title>Node1&#45;&gt;Node2</title>
<g id="a_edge1_Node000001_Node000002"><a xlink:title=" ">
<path fill="none" stroke="#63b8ff" d="M77.3,-47.29C69.13,-38.28 59.53,-27.7 52.81,-20.3"/>
<polygon fill="#63b8ff" stroke="#63b8ff" points="74.51,-49.42 83.82,-54.47 79.69,-44.72 74.51,-49.42"/>
</a>
</g>
</g>
<!-- Node3 -->
<g id="Node000003" class="node">
<title>Node3</title>
<g id="a_Node000003"><a xlink:href="userutils_8cpp.html" target="_top" xlink:title=" ">
<polygon fill="white" stroke="#666666" points="178.12,-20 106.62,-20 106.62,0 178.12,0 178.12,-20"/>
<text text-anchor="middle" x="142.38" y="-6.5" font-family="Helvetica,sans-Serif" font-size="10.00">userutils.cpp</text>
</a>
</g>
</g>
<!-- Node1&#45;&gt;Node3 -->
<g id="edge2_Node000001_Node000003" class="edge">
<title>Node1&#45;&gt;Node3</title>
<g id="a_edge2_Node000001_Node000003"><a xlink:title=" ">
<path fill="none" stroke="#63b8ff" d="M109.45,-47.29C117.62,-38.28 127.22,-27.7 133.94,-20.3"/>
<polygon fill="#63b8ff" stroke="#63b8ff" points="107.06,-44.72 102.93,-54.47 112.24,-49.42 107.06,-44.72"/>
</a>
</g>
</g>
</g>
</svg>
